<svg width="40" height="40" viewBox="0 0 40 40" fill="none" xmlns="http://www.w3.org/2000/svg">
<path d="M17.5 16.25H18.75V17.5H17.5V16.25Z" fill="#FCBF49"/>
<path d="M21.25 16.25H22.5V17.5H21.25V16.25Z" fill="#FCBF49"/>
<path d="M6.875 13.125H8.125V14.375H6.875V13.125Z" fill="#FCBF49"/>
<path d="M10.625 13.125H11.875V14.375H10.625V13.125Z" fill="#FCBF49"/>
<path d="M28.125 13.125H29.375V14.375H28.125V13.125Z" fill="#FCBF49"/>
<path d="M31.875 13.125H33.125V14.375H31.875V13.125Z" fill="#FCBF49"/>
<path d="M36.1562 21.5687L33.125 20.2187V18.7C33.6978 18.3664 34.1991 17.9231 34.6002 17.3954C35.0013 16.8678 35.2943 16.2661 35.4625 15.625H35.625C36.1218 15.6235 36.5979 15.4255 36.9492 15.0742C37.3005 14.7229 37.4985 14.2468 37.5 13.75C37.5 13.2527 37.3025 12.7758 36.9508 12.4242C36.5992 12.0725 36.1223 11.875 35.625 11.875V10.625C35.625 9.29892 35.0982 8.02715 34.1605 7.08947C33.2229 6.15178 31.9511 5.625 30.625 5.625C29.2989 5.625 28.0271 6.15178 27.0895 7.08947C26.1518 8.02715 25.625 9.29892 25.625 10.625V11.875C25.3068 11.8757 24.9944 11.9598 24.7188 12.1187C24.3811 11.1357 23.7448 10.2827 22.8988 9.67878C22.0529 9.07488 21.0394 8.75026 20 8.75026C18.9606 8.75026 17.9471 9.07488 17.1011 9.67878C16.2552 10.2827 15.6189 11.1357 15.2812 12.1187C15.0056 11.9598 14.6932 11.8757 14.375 11.875V10.625C14.375 9.29892 13.8482 8.02715 12.9105 7.08947C11.9729 6.15178 10.7011 5.625 9.375 5.625C8.04892 5.625 6.77715 6.15178 5.83947 7.08947C4.90178 8.02715 4.375 9.29892 4.375 10.625V11.875C3.87772 11.875 3.40081 12.0725 3.04917 12.4242C2.69754 12.7758 2.5 13.2527 2.5 13.75C2.50148 14.2468 2.6995 14.7229 3.05081 15.0742C3.40212 15.4255 3.87818 15.6235 4.375 15.625H4.55C4.76702 16.4889 5.21161 17.2788 5.8375 17.9125C6.14794 18.2134 6.49679 18.4719 6.875 18.6812V20.2187L3.84375 21.5687C3.07188 21.9128 2.41618 22.4731 1.95589 23.1818C1.4956 23.8905 1.25043 24.7174 1.25 25.5625V31.25C1.25 31.4158 1.31585 31.5747 1.43306 31.6919C1.55027 31.8092 1.70924 31.875 1.875 31.875H10.625V30.625H2.5V25.5625C2.49992 24.9579 2.67525 24.3662 3.00473 23.8592C3.33421 23.3522 3.80369 22.9517 4.35625 22.7063L5.66875 22.125L7.05 23.5562C7.10668 23.6173 7.17534 23.666 7.25169 23.6994C7.32804 23.7327 7.41044 23.7499 7.49375 23.75H7.5C7.6657 23.7488 7.82457 23.6839 7.94375 23.5687L9.375 22.1313L10.8063 23.5687C10.9254 23.6839 11.0843 23.7488 11.25 23.75H11.2563C11.3396 23.7499 11.422 23.7327 11.4983 23.6994C11.5747 23.666 11.6433 23.6173 11.7 23.5562L13.0813 22.125L14.3938 22.7063C14.8192 22.8957 15.1971 23.1775 15.5 23.5312L16.45 22.7188C16.0273 22.2254 15.4999 21.8325 14.9062 21.5687L11.875 20.2187V18.6938C12.401 18.3916 12.8671 17.9955 13.25 17.525C13.3813 17.8837 13.6194 18.1936 13.9324 18.4126C14.2454 18.6317 14.618 18.7495 15 18.75H15.175C15.392 19.6139 15.8366 20.4038 16.4625 21.0375C16.7729 21.3384 17.1218 21.5969 17.5 21.8062V23.3438L14.4688 24.6937C13.6969 25.0378 13.0412 25.5981 12.5809 26.3068C12.1206 27.0155 11.8754 27.8424 11.875 28.6875V33.75C11.875 33.9158 11.9408 34.0747 12.0581 34.1919C12.1753 34.3092 12.3342 34.375 12.5 34.375H27.5C27.6658 34.375 27.8247 34.3092 27.9419 34.1919C28.0592 34.0747 28.125 33.9158 28.125 33.75V28.6875C28.1246 27.8424 27.8794 27.0155 27.4191 26.3068C26.9588 25.5981 26.3031 25.0378 25.5312 24.6937L22.5 23.3438V21.8188C23.075 21.4895 23.5782 21.0483 23.9797 20.5212C24.3812 19.9941 24.6729 19.3918 24.8375 18.75H25C25.3807 18.7477 25.7519 18.63 26.0643 18.4124C26.3767 18.1948 26.6158 17.8876 26.75 17.5312C27.1344 18.0003 27.6001 18.3962 28.125 18.7V20.2187L25.0938 21.5687C24.5001 21.8325 23.9727 22.2254 23.55 22.7188L24.5 23.5312C24.8029 23.1775 25.1808 22.8957 25.6063 22.7063L26.9188 22.125L28.3 23.5562C28.3567 23.6173 28.4253 23.666 28.5017 23.6994C28.578 23.7327 28.6604 23.7499 28.7438 23.75H28.75C28.9157 23.7488 29.0746 23.6839 29.1937 23.5687L30.625 22.1313L32.0563 23.5687C32.1754 23.6839 32.3343 23.7488 32.5 23.75H32.5062C32.5896 23.7499 32.672 23.7327 32.7483 23.6994C32.8247 23.666 32.8933 23.6173 32.95 23.5562L34.3312 22.125L35.6437 22.7063C36.1963 22.9517 36.6658 23.3522 36.9953 23.8592C37.3247 24.3662 37.5001 24.9579 37.5 25.5625V30.625H29.375V31.875H38.125C38.2908 31.875 38.4497 31.8092 38.5669 31.6919C38.6842 31.5747 38.75 31.4158 38.75 31.25V25.5625C38.7496 24.7174 38.5044 23.8905 38.0441 23.1818C37.5838 22.4731 36.9281 21.9128 36.1562 21.5687ZM35.625 13.125C35.7084 13.1243 35.7911 13.1411 35.8675 13.1745C35.944 13.2079 36.0126 13.2571 36.0687 13.3187C36.1272 13.3741 36.1736 13.441 36.2048 13.5153C36.236 13.5895 36.2514 13.6695 36.25 13.75C36.25 13.9158 36.1842 14.0747 36.0669 14.1919C35.9497 14.3092 35.7908 14.375 35.625 14.375V13.125ZM4.375 14.375C4.20924 14.375 4.05027 14.3092 3.93306 14.1919C3.81585 14.0747 3.75 13.9158 3.75 13.75C3.74927 13.6666 3.76614 13.5839 3.79953 13.5075C3.83292 13.431 3.88206 13.3624 3.94375 13.3063C3.99911 13.2478 4.06604 13.2014 4.14029 13.1702C4.21454 13.139 4.29447 13.1236 4.375 13.125V14.375ZM7.50625 22.2313L6.88125 21.5812L7.4875 21.3188L8.1125 21.6313L7.50625 22.2313ZM10.625 20.2375L9.85 20.625H8.9L8.125 20.2375V19.2125C8.94425 19.4292 9.80575 19.4292 10.625 19.2125V20.2375ZM11.2437 22.2313L10.6375 21.6313L11.2625 21.3188L11.8687 21.5812L11.2437 22.2313ZM13.125 14.375C13.1273 14.5551 13.1126 14.7351 13.0813 14.9125C12.9981 15.4938 12.7792 16.0474 12.4423 16.5285C12.1054 17.0095 11.66 17.4045 11.1421 17.6814C10.6242 17.9583 10.0483 18.1093 9.46122 18.1223C8.87409 18.1353 8.29215 18.0099 7.7625 17.7563C7.37605 17.5759 7.02475 17.3283 6.725 17.025C6.14523 16.4489 5.77175 15.6975 5.6625 14.8875C5.63545 14.718 5.6229 14.5466 5.625 14.375V12.5H8.75C9.22298 12.4994 9.68967 12.3916 10.1151 12.1849C10.5405 11.9781 10.9135 11.6778 11.2063 11.3063C11.4115 11.6394 11.692 11.9198 12.0252 12.1249C12.3585 12.3301 12.7351 12.4542 13.125 12.4875V14.375ZM13.125 11.2312C12.887 11.1896 12.666 11.0802 12.4887 10.9161C12.3113 10.7521 12.185 10.5403 12.125 10.3062L11.8562 9.225C11.8206 9.07652 11.7313 8.94648 11.6056 8.85993C11.4798 8.77338 11.3264 8.73645 11.175 8.75625C11.0236 8.77455 10.8842 8.84755 10.7829 8.96151C10.6816 9.07547 10.6254 9.22253 10.625 9.375C10.6235 9.87182 10.4255 10.3479 10.0742 10.6992C9.72288 11.0505 9.24682 11.2485 8.75 11.25H5.625V10.625C5.625 9.63044 6.02009 8.67661 6.72335 7.97335C7.42661 7.27009 8.38044 6.875 9.375 6.875C10.3696 6.875 11.3234 7.27009 12.0267 7.97335C12.7299 8.67661 13.125 9.63044 13.125 10.625V11.2312ZM15 17.5C14.8342 17.5 14.6753 17.4342 14.5581 17.3169C14.4408 17.1997 14.375 17.0408 14.375 16.875C14.3743 16.7916 14.3911 16.7089 14.4245 16.6325C14.4579 16.556 14.5071 16.4874 14.5687 16.4313C14.6241 16.3728 14.691 16.3264 14.7653 16.2952C14.8395 16.264 14.9195 16.2486 15 16.25V17.5ZM14.375 14.375V13.125C14.4584 13.1243 14.5411 13.1411 14.6175 13.1745C14.694 13.2079 14.7626 13.2571 14.8187 13.3187C14.8772 13.3741 14.9236 13.441 14.9548 13.5153C14.986 13.5895 15.0014 13.6695 15 13.75C15 13.9158 14.9342 14.0747 14.8169 14.1919C14.6997 14.3092 14.5408 14.375 14.375 14.375ZM23.7062 25.25L25.0187 25.8313C25.5713 26.0767 26.0408 26.4772 26.3703 26.9842C26.6997 27.4912 26.8751 28.0829 26.875 28.6875V33.125H13.125V28.6875C13.1249 28.0829 13.3003 27.4912 13.6297 26.9842C13.9592 26.4772 14.4287 26.0767 14.9812 25.8313L16.2937 25.25L17.675 26.6812C17.7317 26.7423 17.8003 26.791 17.8767 26.8244C17.953 26.8577 18.0354 26.8749 18.1187 26.875H18.125C18.2907 26.8738 18.4496 26.8089 18.5687 26.6937L20 25.2563L21.4313 26.6937C21.5504 26.8089 21.7093 26.8738 21.875 26.875H21.8812C21.9646 26.8749 22.047 26.8577 22.1233 26.8244C22.1997 26.791 22.2683 26.7423 22.325 26.6812L23.7062 25.25ZM17.5063 24.7062L18.1125 24.4438L18.7375 24.7563L18.1313 25.3563L17.5063 24.7062ZM18.75 23.3625V22.3375C19.5692 22.5542 20.4308 22.5542 21.25 22.3375V23.3625L20.475 23.75H19.525L18.75 23.3625ZM21.2625 24.7563L21.8875 24.4438L22.4938 24.7062L21.8688 25.3563L21.2625 24.7563ZM23.75 17.5C23.7523 17.6801 23.7376 17.8601 23.7062 18.0375C23.6231 18.6188 23.4042 19.1724 23.0673 19.6535C22.7304 20.1345 22.285 20.5295 21.7671 20.8064C21.2492 21.0833 20.6733 21.2343 20.0862 21.2473C19.4991 21.2603 18.9172 21.1349 18.3875 20.8813C18.0011 20.7009 17.6497 20.4533 17.35 20.15C16.7702 19.5739 16.3968 18.8225 16.2875 18.0125C16.2604 17.843 16.2479 17.6716 16.25 17.5V15.625H19.375C19.848 15.6244 20.3147 15.5166 20.7401 15.3099C21.1655 15.1031 21.5385 14.8028 21.8312 14.4312C22.0359 14.7649 22.3163 15.0457 22.6496 15.2509C22.9829 15.4562 23.3599 15.58 23.75 15.6125V17.5ZM23.75 14.3562C23.512 14.3146 23.291 14.2052 23.1137 14.0411C22.9363 13.8771 22.81 13.6653 22.75 13.4312L22.4813 12.35C22.446 12.2013 22.3568 12.071 22.2309 11.9844C22.105 11.8978 21.9515 11.861 21.8 11.8813C21.6486 11.8995 21.5092 11.9725 21.4079 12.0865C21.3066 12.2005 21.2504 12.3475 21.25 12.5C21.2485 12.9968 21.0505 13.4729 20.6992 13.8242C20.3479 14.1755 19.8718 14.3735 19.375 14.375H16.25V13.75C16.25 12.7554 16.6451 11.8016 17.3483 11.0983C18.0516 10.3951 19.0054 10 20 10C20.9946 10 21.9484 10.3951 22.6517 11.0983C23.3549 11.8016 23.75 12.7554 23.75 13.75V14.3562ZM25 17.5V16.25C25.0834 16.2493 25.1661 16.2661 25.2425 16.2995C25.319 16.3329 25.3876 16.3821 25.4437 16.4437C25.5022 16.4991 25.5486 16.566 25.5798 16.6403C25.611 16.7145 25.6264 16.7945 25.625 16.875C25.625 17.0408 25.5592 17.1997 25.4419 17.3169C25.3247 17.4342 25.1658 17.5 25 17.5ZM25.625 14.375C25.4592 14.375 25.3003 14.3092 25.1831 14.1919C25.0658 14.0747 25 13.9158 25 13.75C24.9993 13.6666 25.0161 13.5839 25.0495 13.5075C25.0829 13.431 25.1321 13.3624 25.1938 13.3063C25.2491 13.2478 25.316 13.2014 25.3903 13.1702C25.4645 13.139 25.5445 13.1236 25.625 13.125V14.375ZM26.875 10.625C26.875 9.63044 27.2701 8.67661 27.9733 7.97335C28.6766 7.27009 29.6304 6.875 30.625 6.875C31.6196 6.875 32.5734 7.27009 33.2766 7.97335C33.9799 8.67661 34.375 9.63044 34.375 10.625V11.2312C34.137 11.1896 33.916 11.0802 33.7387 10.9161C33.5613 10.7521 33.435 10.5403 33.375 10.3062L33.1063 9.225C33.071 9.07631 32.9818 8.94601 32.8559 8.85939C32.73 8.77278 32.5765 8.73602 32.425 8.75625C32.2736 8.77455 32.1342 8.84755 32.0329 8.96151C31.9316 9.07547 31.8754 9.22253 31.875 9.375C31.8735 9.87182 31.6755 10.3479 31.3242 10.6992C30.9729 11.0505 30.4968 11.2485 30 11.25H26.875V10.625ZM26.875 14.375V12.5H30C30.473 12.4994 30.9397 12.3916 31.3651 12.1849C31.7905 11.9781 32.1635 11.6778 32.4562 11.3063C32.6609 11.6399 32.9413 11.9207 33.2746 12.1259C33.6079 12.3312 33.9849 12.455 34.375 12.4875V14.375C34.375 15.3696 33.9799 16.3234 33.2766 17.0267C32.5734 17.7299 31.6196 18.125 30.625 18.125C29.6304 18.125 28.6766 17.7299 27.9733 17.0267C27.2701 16.3234 26.875 15.3696 26.875 14.375ZM28.7562 22.2313L28.1312 21.5812L28.7375 21.3188L29.3625 21.6313L28.7562 22.2313ZM31.875 20.2375L31.1 20.625H30.15L29.375 20.2375V19.2125C30.1942 19.4292 31.0558 19.4292 31.875 19.2125V20.2375ZM32.4938 22.2313L31.8875 21.6313L32.5125 21.3188L33.1188 21.5812L32.4938 22.2313Z" fill="#FCBF49"/>
</svg>
