<svg width="80" height="80" viewBox="0 0 80 80" fill="none" xmlns="http://www.w3.org/2000/svg">
<path d="M40.6758 64.8681C54.4286 64.8681 65.5774 53.7192 65.5774 39.9664C65.5774 26.2137 54.4286 15.0648 40.6758 15.0648C26.923 15.0648 15.7742 26.2137 15.7742 39.9664C15.7742 53.7192 26.923 64.8681 40.6758 64.8681Z" fill="#FCD462"/>
<path d="M65.5753 39.9675C65.5801 43.608 64.7839 47.2049 63.2431 50.5032C61.7023 53.8015 59.4547 56.7205 56.6596 59.053C60.6587 54.2836 62.7258 48.1891 62.4532 41.971C62.1807 35.7529 59.5883 29.8625 55.1873 25.4614C50.7863 21.0602 44.8961 18.4677 38.678 18.195C32.4599 17.9223 26.3653 19.9891 21.5958 23.9881C24.875 20.0658 29.2826 17.2486 34.2193 15.9195C39.1561 14.5905 44.3823 14.8141 49.1875 16.56C53.9926 18.3059 58.1434 21.4893 61.0756 25.6774C64.0077 29.8655 65.5788 34.8551 65.5753 39.9675Z" fill="#F7BE56"/>
<path d="M40.6758 65.4054C35.6437 65.4054 30.7246 63.9131 26.5406 61.1174C22.3566 58.3216 19.0956 54.3479 17.17 49.6988C15.2445 45.0496 14.7408 39.9339 15.7228 34.9985C16.7047 30.0631 19.1282 25.5298 22.6866 21.9718C26.2451 18.4137 30.7788 15.9909 35.7143 15.0095C40.6498 14.0282 45.7655 14.5325 50.4144 16.4587C55.0632 18.3848 59.0365 21.6463 61.8318 25.8307C64.627 30.015 66.1186 34.9343 66.118 39.9665C66.1094 46.7112 63.426 53.1772 58.6565 57.9462C53.8869 62.7151 47.4206 65.3976 40.6758 65.4054ZM40.6758 15.6021C35.8578 15.6021 31.1479 17.0308 27.1419 19.7075C23.1358 22.3842 20.0133 26.1887 18.1694 30.6399C16.3255 35.0911 15.8429 39.9891 16.7826 44.7146C17.7223 49.4401 20.0421 53.7809 23.4488 57.188C26.8554 60.595 31.1958 62.9155 35.9212 63.8558C40.6466 64.7962 45.5447 64.3142 49.9962 62.4708C54.4476 60.6275 58.2525 57.5056 60.9297 53.4999C63.607 49.4941 65.0363 44.7845 65.0369 39.9665C65.0295 33.5078 62.4605 27.3158 57.8935 22.7488C53.3265 18.1818 47.1345 15.6128 40.6758 15.6054V15.6021Z" fill="#323C6B"/>
<path d="M23.7234 30.7546C22.0853 33.5485 21.2221 36.7288 21.2229 39.9675C21.2274 41.0165 21.3237 42.063 21.5104 43.0951C21.5471 43.3096 21.4971 43.5298 21.3714 43.7074C21.2457 43.885 21.0546 44.0054 20.8402 44.0421C20.7913 44.0546 20.7413 44.0618 20.691 44.0638C20.4981 44.0619 20.3118 43.9929 20.1642 43.8686C20.0167 43.7443 19.917 43.5725 19.8823 43.3827C19.6776 42.2558 19.5745 41.1129 19.5742 39.9675C19.5714 36.4336 20.5115 32.9629 22.2975 29.9135C22.4098 29.7269 22.5912 29.5921 22.8022 29.5383C23.0133 29.4844 23.237 29.5159 23.425 29.6259C23.5193 29.6798 23.602 29.752 23.6681 29.8381C23.7343 29.9243 23.7827 30.0228 23.8104 30.1278C23.8382 30.2328 23.8448 30.3423 23.8299 30.4499C23.8149 30.5575 23.7787 30.6611 23.7234 30.7546Z" fill="white"/>
<path d="M26.011 26.6692C26.0163 26.7768 25.9991 26.8844 25.9606 26.9851C25.922 27.0858 25.863 27.1774 25.7872 27.254L25.3612 27.9459C25.2999 28.0443 25.2174 28.1279 25.1198 28.1905C25.0222 28.2531 24.9119 28.2933 24.7969 28.3081C24.7587 28.3174 24.7194 28.3211 24.6801 28.3189C24.5127 28.3168 24.3498 28.2649 24.212 28.1697C24.1228 28.1088 24.0466 28.0309 23.9876 27.9404C23.9287 27.8499 23.8882 27.7486 23.8685 27.6424C23.8488 27.5362 23.8503 27.4272 23.8729 27.3216C23.8955 27.216 23.9387 27.1158 24.0001 27.027L24.5958 26.1232C24.7455 25.9654 24.9517 25.8733 25.1691 25.8672C25.3866 25.8611 25.5976 25.9415 25.7558 26.0908C25.8363 26.1641 25.9005 26.2534 25.9445 26.353C25.9884 26.4526 26.0111 26.5603 26.011 26.6692Z" fill="white"/>
<path d="M38.5947 9.66054C39.1505 7.31665 39.8469 5.00834 40.6801 2.74811C41.5133 5.00834 42.2096 7.31665 42.7655 9.66054C42.834 9.97247 42.8318 10.2958 42.7588 10.6067C42.6859 10.9177 42.5442 11.2083 42.3441 11.4572C42.144 11.7061 41.8907 11.907 41.6027 12.0451C41.3147 12.1832 40.9995 12.255 40.6801 12.2551C40.3607 12.255 40.0455 12.1832 39.7575 12.0451C39.4695 11.907 39.2162 11.7061 39.0161 11.4572C38.816 11.2083 38.6743 10.9177 38.6014 10.6067C38.5284 10.2958 38.5262 9.97247 38.5947 9.66054Z" fill="#FCD462"/>
<path d="M40.6758 12.7924C40.2764 12.7919 39.8823 12.7021 39.5221 12.5295C39.162 12.357 38.8451 12.106 38.5945 11.795C38.344 11.484 38.1662 11.1209 38.0742 10.7323C37.9822 10.3437 37.9783 9.93947 38.0628 9.54917C38.6224 7.1791 39.326 4.8454 40.1698 2.56106C40.2159 2.46577 40.288 2.3854 40.3776 2.32917C40.4673 2.27293 40.571 2.2431 40.6769 2.2431C40.7827 2.2431 40.8864 2.27293 40.9761 2.32917C41.0658 2.3854 41.1378 2.46577 41.1839 2.56106C42.0277 4.8454 42.7314 7.1791 43.2909 9.54917C43.3754 9.93947 43.3715 10.3437 43.2795 10.7323C43.1875 11.1209 43.0098 11.484 42.7592 11.795C42.5087 12.106 42.1917 12.357 41.8316 12.5295C41.4715 12.7021 41.0773 12.7919 40.678 12.7924H40.6758ZM40.6758 4.37295C40.0607 6.14564 39.541 7.95003 39.119 9.77836C39.0679 10.0124 39.07 10.255 39.1252 10.4882C39.1804 10.7213 39.2873 10.9391 39.438 11.1254C39.5921 11.3022 39.7823 11.4439 39.9959 11.5411C40.2094 11.6382 40.4412 11.6884 40.6758 11.6884C40.9104 11.6884 41.1422 11.6382 41.3557 11.5411C41.5692 11.4439 41.7595 11.3022 41.9136 11.1254C42.0643 10.9391 42.1712 10.7213 42.2264 10.4882C42.2816 10.255 42.2837 10.0124 42.2325 9.77836C41.8106 7.95002 41.291 6.14562 40.6758 4.37295Z" fill="#323C6B"/>
<path d="M26.4445 13.1286C25.9988 10.7612 25.6959 8.36917 25.5375 5.96539C27.218 7.69147 28.7931 9.51711 30.2542 11.4324C30.4433 11.6894 30.5725 11.9854 30.6321 12.2988C30.6918 12.6122 30.6806 12.935 30.5992 13.2435C30.5178 13.552 30.3683 13.8383 30.1618 14.0815C29.9552 14.3246 29.6968 14.5184 29.4056 14.6486C29.1139 14.7785 28.7968 14.8413 28.4776 14.8325C28.1584 14.8237 27.8452 14.7434 27.5611 14.5976C27.2771 14.4517 27.0293 14.2441 26.836 13.9899C26.6428 13.7357 26.509 13.4414 26.4445 13.1286Z" fill="#FCD462"/>
<path d="M28.5353 15.3752C27.92 15.3735 27.3241 15.1605 26.8472 14.7718C26.3703 14.3831 26.0415 13.8423 25.9158 13.24C25.4628 10.8465 25.1563 8.42761 24.998 5.99678C24.9912 5.88679 25.0181 5.77734 25.0753 5.68311C25.1324 5.58888 25.217 5.51437 25.3177 5.46956C25.4184 5.42475 25.5303 5.41178 25.6386 5.43239C25.7468 5.453 25.8462 5.50621 25.9234 5.58488C27.6235 7.3284 29.2156 9.17399 30.691 11.1114C30.9832 11.5102 31.1593 11.9821 31.1997 12.4748C31.2402 12.9676 31.1435 13.4619 30.9203 13.903C30.6971 14.3442 30.3561 14.7149 29.9352 14.9742C29.5142 15.2334 29.0297 15.3711 28.5353 15.3719V15.3752ZM26.1991 7.45083C26.3575 9.31881 26.6159 11.177 26.9731 13.0173C27.0212 13.2506 27.121 13.4701 27.2651 13.6598C27.4092 13.8494 27.594 14.0044 27.8059 14.1132C28.0178 14.222 28.2514 14.2819 28.4895 14.2885C28.7276 14.2951 28.9642 14.2483 29.1818 14.1514C29.3994 14.0546 29.5925 13.9102 29.747 13.7288C29.9014 13.5475 30.0132 13.3339 30.0742 13.1036C30.1352 12.8733 30.1438 12.6323 30.0994 12.3983C30.0549 12.1643 29.9586 11.9432 29.8174 11.7514C28.6889 10.2543 27.481 8.81876 26.1991 7.45083Z" fill="#323C6B"/>
<path d="M16.7569 21.2378C15.3869 19.2563 14.1375 17.1942 13.0153 15.0627C15.2526 15.9559 17.4342 16.983 19.5482 18.1384C19.8253 18.2964 20.0635 18.5145 20.2453 18.7766C20.4271 19.0387 20.5478 19.3382 20.5987 19.653C20.6497 19.9679 20.6294 20.2902 20.5395 20.5963C20.4495 20.9023 20.2922 21.1843 20.079 21.4216C19.8654 21.6587 19.6014 21.8449 19.3063 21.9666C19.0112 22.0883 18.6927 22.1423 18.374 22.1246C18.0553 22.107 17.7446 22.0182 17.4648 21.8647C17.185 21.7113 16.9431 21.497 16.7569 21.2378Z" fill="#FCD462"/>
<path d="M18.4985 22.6681C18.4499 22.6681 18.4012 22.6681 18.3526 22.6681C17.9522 22.6473 17.5617 22.5368 17.2099 22.3446C16.858 22.1524 16.554 21.8835 16.3202 21.5578C14.9329 19.5565 13.6693 17.4722 12.5364 15.3167C12.484 15.2189 12.463 15.1074 12.4763 14.9972C12.4895 14.8871 12.5363 14.7837 12.6103 14.701C12.6843 14.6184 12.782 14.5605 12.89 14.5353C12.9981 14.5101 13.1113 14.5187 13.2142 14.56C15.4766 15.4612 17.6818 16.4999 19.8175 17.6703C20.3301 17.9621 20.7319 18.4152 20.9602 18.9591C21.1886 19.503 21.2308 20.1071 21.0802 20.6774C20.9296 21.2478 20.5947 21.7523 20.1275 22.1125C19.6604 22.4728 19.0873 22.6685 18.4975 22.6692L18.4985 22.6681ZM14.225 16.1503C15.1295 17.7926 16.1215 19.3852 17.1969 20.9211C17.3357 21.1147 17.5162 21.2746 17.725 21.3893C17.9338 21.5039 18.1657 21.5703 18.4035 21.5835C18.6414 21.5967 18.8792 21.5564 19.0994 21.4656C19.3196 21.3748 19.5167 21.2358 19.6761 21.0587C19.8355 20.8817 19.9531 20.6712 20.0205 20.4427C20.0878 20.2142 20.103 19.9735 20.065 19.7384C20.027 19.5032 19.9368 19.2795 19.801 19.0838C19.6652 18.8881 19.4872 18.7254 19.2802 18.6076C17.6403 17.6986 15.9528 16.8783 14.225 16.1503Z" fill="#323C6B"/>
<path d="M11.2088 32.5849C9.15138 31.3321 7.17123 29.9566 5.27905 28.4659C7.68608 28.3723 10.0966 28.4235 12.4974 28.6195C12.8149 28.6511 13.1212 28.7534 13.3939 28.9189C13.6667 29.0844 13.8989 29.3089 14.0735 29.5759C14.2481 29.8429 14.3607 30.1457 14.403 30.4619C14.4453 30.7781 14.4162 31.0997 14.318 31.4033C14.219 31.7065 14.0534 31.9838 13.8333 32.2147C13.6132 32.4456 13.3442 32.6243 13.046 32.7377C12.7478 32.851 12.428 32.8961 12.11 32.8696C11.7921 32.8432 11.4842 32.7459 11.2088 32.5849Z" fill="#FCD462"/>
<path d="M12.2865 33.4183C11.8124 33.4178 11.3469 33.2918 10.9374 33.0529C8.85643 31.7883 6.85452 30.3979 4.94276 28.8897C4.85648 28.8211 4.79322 28.7278 4.76146 28.6223C4.7297 28.5167 4.73096 28.404 4.76507 28.2992C4.79918 28.1944 4.86451 28.1025 4.9523 28.0359C5.0401 27.9693 5.14616 27.9311 5.25628 27.9265C7.68961 27.8298 10.1266 27.8818 12.5536 28.0821C13.2352 28.1522 13.864 28.4812 14.3102 29.0012C14.7565 29.5212 14.9863 30.1925 14.9522 30.8769C14.9181 31.5613 14.6227 32.2065 14.1269 32.6796C13.6312 33.1526 12.9729 33.4174 12.2876 33.4194L12.2865 33.4183ZM11.4801 32.1211C11.6872 32.2412 11.9187 32.3133 12.1575 32.3321C12.3963 32.3508 12.6362 32.3156 12.8595 32.2292C13.0811 32.1442 13.2809 32.0108 13.4444 31.8387C13.6078 31.6666 13.7307 31.4602 13.804 31.2345C13.8774 31.0088 13.8994 30.7695 13.8684 30.5343C13.8374 30.299 13.7542 30.0736 13.6249 29.8746C13.4943 29.6739 13.3204 29.5052 13.1159 29.3807C12.9114 29.2563 12.6815 29.1794 12.4433 29.1556C10.5741 28.993 8.69757 28.9302 6.82168 28.9675C8.31617 30.0998 9.8701 31.1514 11.4768 32.1178L11.4801 32.1211Z" fill="#323C6B"/>
<path d="M10.7536 45.2086C8.36433 44.9008 5.99572 44.4496 3.66064 43.8573C5.82163 42.7923 8.04475 41.8584 10.3179 41.0605C10.6209 40.9602 10.9424 40.9291 11.259 40.9694C11.5755 41.0097 11.879 41.1203 12.1472 41.2933C12.4153 41.4663 12.6413 41.6971 12.8086 41.9689C12.9758 42.2406 13.08 42.5464 13.1136 42.8637C13.1467 43.1811 13.1083 43.5019 13.0012 43.8025C12.8941 44.1031 12.721 44.3759 12.4946 44.6008C12.2682 44.8257 11.9943 44.997 11.6931 45.1022C11.3918 45.2074 11.0708 45.2438 10.7536 45.2086Z" fill="#FCD462"/>
<path d="M10.9882 45.7621C10.8907 45.762 10.7933 45.7566 10.6963 45.7459C8.28088 45.4371 5.88651 44.9811 3.52661 44.3805C3.41971 44.3533 3.32368 44.2941 3.25142 44.2107C3.17915 44.1274 3.13412 44.024 3.12235 43.9143C3.11058 43.8046 3.13265 43.694 3.18559 43.5972C3.23853 43.5004 3.3198 43.4222 3.41851 43.3729C5.60201 42.2946 7.84945 41.3508 10.1482 40.547C10.5159 40.4255 10.9056 40.3852 11.2904 40.4291C11.6752 40.4729 12.0458 40.5998 12.3768 40.8009C12.7077 41.002 12.991 41.2726 13.2071 41.594C13.4232 41.9153 13.5669 42.2798 13.6284 42.6621C13.6898 43.0445 13.6675 43.4356 13.5629 43.8085C13.4584 44.1814 13.2741 44.5271 13.0229 44.8218C12.7716 45.1164 12.4594 45.353 12.1077 45.5152C11.756 45.6774 11.3733 45.7613 10.9861 45.761L10.9882 45.7621ZM10.8109 44.6713C11.0477 44.6978 11.2874 44.6708 11.5123 44.5925C11.7373 44.5141 11.9418 44.3862 12.1109 44.2184C12.2799 44.0505 12.4092 43.8469 12.4891 43.6225C12.5691 43.3981 12.5977 43.1586 12.5729 42.9217C12.5481 42.6847 12.4704 42.4564 12.3457 42.2534C12.221 42.0504 12.0523 41.878 11.8522 41.7488C11.652 41.6196 11.4255 41.537 11.1891 41.5069C10.9528 41.4768 10.7127 41.5001 10.4866 41.5751C8.71388 42.1856 6.97517 42.8908 5.27797 43.6875C7.10373 44.1142 8.95107 44.4426 10.812 44.6713H10.8109Z" fill="#323C6B"/>
<path d="M15.4726 56.9253C13.1655 57.616 10.8189 58.1672 8.44556 58.5761C9.98643 56.7243 11.6373 54.9669 13.3893 53.3134C13.6253 53.0988 13.9063 52.9397 14.2118 52.8478C14.5172 52.756 14.8394 52.7337 15.1546 52.7827C15.4698 52.8316 15.77 52.9505 16.0333 53.1307C16.2965 53.3108 16.5161 53.5476 16.6758 53.8237C16.8351 54.1002 16.9303 54.4089 16.9546 54.7271C16.9789 55.0453 16.9316 55.3648 16.8162 55.6623C16.7008 55.9598 16.5202 56.2277 16.2877 56.4463C16.0552 56.6648 15.7767 56.8285 15.4726 56.9253Z" fill="#FCD462"/>
<path d="M8.44344 59.1168C8.34103 59.1166 8.24077 59.0874 8.15435 59.0324C8.06792 58.9775 7.99888 58.8991 7.95527 58.8065C7.91166 58.7138 7.89527 58.6106 7.90801 58.509C7.92074 58.4074 7.96209 58.3115 8.02722 58.2325C9.58313 56.3592 11.2522 54.5829 13.0251 52.9136C13.3221 52.6447 13.6754 52.4456 14.0592 52.3307C14.443 52.2159 14.8476 52.1882 15.2434 52.2498C15.8378 52.3442 16.3829 52.6362 16.7907 53.0787C17.1986 53.5213 17.4452 54.0884 17.4909 54.6885C17.5365 55.2885 17.3784 55.8864 17.0422 56.3855C16.706 56.8847 16.2113 57.2558 15.638 57.439C13.3058 58.1391 10.9331 58.6965 8.53317 59.1082C8.50353 59.1134 8.47353 59.1163 8.44344 59.1168ZM14.8218 53.2984C14.424 53.2985 14.0404 53.4469 13.7461 53.7146C12.3754 54.9937 11.0741 56.3451 9.84776 57.7633C11.689 57.4101 13.51 56.9587 15.3029 56.4109C15.6451 56.3025 15.9406 56.0818 16.1417 55.7845C16.3428 55.4872 16.4376 55.1307 16.4109 54.7728C16.3841 54.4149 16.2373 54.0765 15.9942 53.8125C15.7511 53.5484 15.426 53.3741 15.0715 53.3179C14.99 53.3049 14.9076 53.2981 14.8251 53.2973L14.8218 53.2984Z" fill="#323C6B"/>
<path d="M24.5493 65.7102C22.7219 67.2801 20.8017 68.7386 18.7991 70.0778C19.4544 67.7593 20.2486 65.4824 21.1774 63.2594C21.3056 62.9673 21.4976 62.7076 21.7392 62.4994C21.9809 62.2912 22.2661 62.1398 22.5739 62.0562C22.8818 61.9726 23.2044 61.959 23.5182 62.0165C23.832 62.0739 24.1289 62.2009 24.3872 62.388C24.645 62.5759 24.8575 62.8192 25.009 63.0999C25.1605 63.3806 25.2472 63.6917 25.2628 64.0103C25.2783 64.329 25.2223 64.647 25.0988 64.9412C24.9754 65.2354 24.7876 65.4981 24.5493 65.7102Z" fill="#FCD462"/>
<path d="M18.799 70.6183C18.7157 70.6183 18.6334 70.5991 18.5587 70.5621C18.484 70.5251 18.4189 70.4713 18.3684 70.4049C18.318 70.3385 18.2835 70.2614 18.2678 70.1795C18.2521 70.0976 18.2556 70.0132 18.278 69.9329C18.9381 67.5888 19.7407 65.2873 20.6812 63.041C20.8421 62.6754 21.0827 62.3505 21.3856 62.0901C21.6885 61.8297 22.0458 61.6404 22.4314 61.5362C22.8169 61.432 23.221 61.4154 23.6138 61.4878C24.0066 61.5601 24.3782 61.7195 24.7013 61.9543C25.0245 62.189 25.2909 62.4932 25.4811 62.8444C25.6713 63.1956 25.7805 63.5849 25.8005 63.9839C25.8206 64.3828 25.751 64.7811 25.597 65.1496C25.443 65.5181 25.2084 65.8474 24.9104 66.1134C23.0648 67.7017 21.1239 69.1758 19.0985 70.5275C19.0098 70.5866 18.9056 70.6182 18.799 70.6183ZM23.1342 62.521C22.8236 62.5211 22.5198 62.6116 22.2599 62.7815C22 62.9514 21.7951 63.1934 21.6704 63.4778C20.9379 65.2019 20.2984 66.964 19.7547 68.7567C21.2929 67.6835 22.7725 66.5287 24.1871 65.2972C24.4293 65.083 24.6006 64.8002 24.6782 64.4863C24.7558 64.1725 24.7362 63.8424 24.6218 63.54C24.5074 63.2376 24.3038 62.9771 24.0379 62.7932C23.772 62.6093 23.4564 62.5105 23.1331 62.5102L23.1342 62.521Z" fill="#323C6B"/>
<path d="M36.4143 70.0442C35.3834 72.2216 34.2223 74.335 32.9375 76.3729C32.5926 73.9886 32.3916 71.5857 32.3354 69.1772C32.3336 68.8581 32.4034 68.5428 32.5395 68.2542C32.6756 67.9657 32.8746 67.7112 33.1219 67.5097C33.3692 67.3081 33.6585 67.1645 33.9686 67.0894C34.2786 67.0142 34.6016 67.0095 34.9137 67.0756C35.2257 67.1422 35.5189 67.2779 35.7716 67.4726C36.0243 67.6674 36.2301 67.9163 36.374 68.201C36.518 68.4857 36.5963 68.7991 36.6032 69.118C36.6102 69.437 36.5456 69.7535 36.4143 70.0442Z" fill="#FCD462"/>
<path d="M32.9375 76.9135C32.8078 76.9136 32.6823 76.867 32.5841 76.7823C32.4858 76.6975 32.4213 76.5803 32.4024 76.4519C32.0521 74.042 31.8492 71.613 31.7948 69.1784C31.7936 68.7791 31.8818 68.3845 32.053 68.0237C32.2241 67.6629 32.4739 67.345 32.784 67.0934C33.0941 66.8417 33.4566 66.6627 33.8449 66.5695C34.2332 66.4762 34.6375 66.4711 35.028 66.5545C35.4186 66.6379 35.7855 66.8077 36.1018 67.0515C36.4181 67.2952 36.6759 67.6067 36.8561 67.9631C37.0363 68.3194 37.1345 68.7116 37.1433 69.1109C37.1522 69.5101 37.0715 69.9063 36.9072 70.2703C35.8677 72.4723 34.6944 74.6085 33.3937 76.6671C33.3444 76.7431 33.2768 76.8055 33.1971 76.8486C33.1174 76.8916 33.0281 76.914 32.9375 76.9135ZM34.4672 67.5676C34.2572 67.5683 34.0493 67.6104 33.8556 67.6916C33.6619 67.7728 33.486 67.8914 33.3382 68.0406C33.1904 68.1899 33.0735 68.3668 32.9941 68.5613C32.9148 68.7558 32.8746 68.964 32.8759 69.1741C32.9092 71.0487 33.0427 72.9202 33.2759 74.7806C34.2456 73.176 35.1287 71.5207 35.9213 69.8216C36.0199 69.6033 36.0682 69.3656 36.0626 69.1261C36.057 68.8865 35.9976 68.6514 35.8889 68.4379C35.755 68.1759 35.5515 67.9561 35.3006 67.8025C35.0498 67.6489 34.7614 67.5676 34.4672 67.5676Z" fill="#323C6B"/>
<path d="M49.0165 69.1772C48.9603 71.5857 48.7592 73.9886 48.4143 76.3729C47.1295 74.335 45.9684 72.2216 44.9375 70.0442C44.8062 69.7535 44.7416 69.437 44.7486 69.118C44.7555 68.7991 44.8338 68.4857 44.9778 68.201C45.1217 67.9163 45.3275 67.6674 45.5802 67.4726C45.8329 67.2779 46.1261 67.1422 46.4381 67.0756C46.7502 67.0095 47.0732 67.0142 47.3832 67.0894C47.6933 67.1645 47.9826 67.3081 48.2299 67.5097C48.4772 67.7112 48.6762 67.9657 48.8124 68.2542C48.9485 68.5428 49.0182 68.8581 49.0165 69.1772Z" fill="#FCD462"/>
<path d="M48.4142 76.9135C48.3232 76.9135 48.2337 76.8905 48.1539 76.8467C48.0742 76.8028 48.0068 76.7395 47.958 76.6627C46.6575 74.6056 45.4842 72.4708 44.4445 70.2703C44.2802 69.9063 44.1996 69.5101 44.2084 69.1109C44.2173 68.7116 44.3154 68.3194 44.4956 67.9631C44.6759 67.6067 44.9336 67.2952 45.2499 67.0515C45.5663 66.8077 45.9332 66.6379 46.3237 66.5545C46.7143 66.4711 47.1185 66.4762 47.5068 66.5695C47.8951 66.6627 48.2577 66.8417 48.5677 67.0934C48.8778 67.345 49.1276 67.6629 49.2988 68.0237C49.47 68.3845 49.5582 68.7791 49.5569 69.1784C49.5026 71.613 49.2997 74.042 48.9494 76.4519C48.9304 76.5803 48.8659 76.6975 48.7677 76.7823C48.6695 76.867 48.544 76.9136 48.4142 76.9135ZM46.8845 67.5676C46.6177 67.5675 46.355 67.6343 46.1207 67.762C45.8863 67.8896 45.6877 68.074 45.5431 68.2983C45.3984 68.5225 45.3123 68.7795 45.2926 69.0456C45.273 69.3117 45.3203 69.5786 45.4305 69.8216C46.2231 71.5207 47.1062 73.176 48.0759 74.7806C48.309 72.9202 48.4425 71.0487 48.4759 69.1741C48.4771 68.964 48.437 68.7558 48.3576 68.5613C48.2783 68.3668 48.1614 68.1898 48.0135 68.0406C47.8657 67.8914 47.6899 67.7728 47.4962 67.6916C47.3024 67.6104 47.0946 67.5683 46.8845 67.5676Z" fill="#323C6B"/>
<path d="M60.1763 63.2594C61.1052 65.4824 61.8994 67.7593 62.5547 70.0778C60.5521 68.7386 58.6319 67.2801 56.8045 65.7102C56.5662 65.498 56.3785 65.2352 56.2552 64.941C56.1318 64.6468 56.0759 64.3287 56.0916 64.0101C56.1072 63.6915 56.194 63.3804 56.3457 63.0997C56.4973 62.819 56.7098 62.5758 56.9677 62.3881C57.226 62.2011 57.5228 62.0743 57.8364 62.017C58.1501 61.9597 58.4726 61.9733 58.7803 62.0568C59.088 62.1404 59.3731 62.2918 59.6146 62.4999C59.8562 62.708 60.0481 62.9675 60.1763 63.2594Z" fill="#FCD462"/>
<path d="M62.5526 70.6184C62.4465 70.6184 62.3427 70.5872 62.2542 70.5286C60.2288 69.177 58.2879 67.7029 56.4423 66.1146C56.144 65.8488 55.909 65.5195 55.7546 65.1509C55.6003 64.7823 55.5304 64.3839 55.5503 63.9848C55.5702 63.5857 55.6792 63.1961 55.8694 62.8447C56.0596 62.4933 56.3261 62.1889 56.6493 61.954C56.9726 61.7191 57.3444 61.5597 57.7373 61.4873C58.1303 61.415 58.5345 61.4316 58.9202 61.536C59.3059 61.6403 59.6634 61.8298 59.9662 62.0905C60.2691 62.3511 60.5097 62.6763 60.6704 63.0422C61.611 65.2884 62.4135 67.59 63.0737 69.934C63.096 70.0144 63.0995 70.0988 63.0838 70.1806C63.0681 70.2625 63.0337 70.3397 62.9832 70.406C62.9328 70.4724 62.8676 70.5262 62.7929 70.5632C62.7182 70.6002 62.636 70.6195 62.5526 70.6194V70.6184ZM58.2174 62.5211C57.8094 62.5222 57.4174 62.6798 57.1221 62.9614C56.8269 63.243 56.6509 63.6271 56.6304 64.0346C56.6179 64.2737 56.6593 64.5126 56.7515 64.7336C56.8438 64.9546 56.9845 65.1521 57.1634 65.3113C58.578 66.5428 60.0576 67.6977 61.5958 68.7708C61.0524 66.9764 60.4133 65.2125 59.6812 63.4865C59.5565 63.2021 59.3517 62.9602 59.0917 62.7903C58.8318 62.6204 58.528 62.5298 58.2174 62.5297V62.5211Z" fill="#323C6B"/>
<path d="M67.9644 53.3145C69.7164 54.968 71.3673 56.7254 72.9082 58.5772C70.5348 58.1684 68.1883 57.6171 65.8811 56.9264C65.5772 56.8295 65.2988 56.6657 65.0664 56.4471C64.834 56.2285 64.6535 55.9607 64.5382 55.6632C64.4229 55.3657 64.3757 55.0461 64.4 54.728C64.4244 54.4099 64.5197 54.1013 64.679 53.8248C64.8388 53.5489 65.0583 53.3123 65.3214 53.1322C65.5846 52.9522 65.8847 52.8334 66.1997 52.7845C66.5148 52.7355 66.8368 52.7577 67.1421 52.8495C67.4475 52.9412 67.7284 53.1001 67.9644 53.3145Z" fill="#FCD462"/>
<path d="M72.9083 59.1167C72.8783 59.1165 72.8483 59.114 72.8186 59.1091C70.4186 58.6975 68.0459 58.1401 65.7137 57.44C65.3327 57.3189 64.9837 57.1139 64.6923 56.8402C64.4009 56.5664 64.1747 56.2308 64.0301 55.8581C63.8855 55.4853 63.8264 55.0849 63.857 54.6863C63.8876 54.2877 64.0071 53.901 64.2069 53.5546C64.4066 53.2083 64.6815 52.9112 65.0112 52.6851C65.3409 52.459 65.7172 52.3097 66.1122 52.2482C66.5072 52.1867 66.911 52.2145 67.2939 52.3297C67.6768 52.4448 68.029 52.6443 68.3246 52.9135C70.0974 54.5829 71.7665 56.3592 73.3224 58.2324C73.3875 58.3114 73.4289 58.4073 73.4416 58.5089C73.4543 58.6106 73.438 58.7137 73.3943 58.8064C73.3507 58.899 73.2817 58.9774 73.1953 59.0323C73.1088 59.0873 73.0086 59.1165 72.9062 59.1167H72.9083ZM66.53 53.2983C66.4463 53.2985 66.3629 53.3051 66.2802 53.3178C65.9257 53.3741 65.6006 53.5483 65.3576 53.8124C65.1145 54.0765 64.9677 54.4148 64.9409 54.7728C64.9141 55.1307 65.009 55.4871 65.2101 55.7844C65.4111 56.0817 65.7067 56.3024 66.0489 56.4108C67.8418 56.9586 69.6628 57.4101 71.504 57.7632C70.2777 56.3451 68.9764 54.9936 67.6056 53.7146C67.3107 53.4457 66.9258 53.2968 66.5267 53.2973L66.53 53.2983Z" fill="#323C6B"/>
<path d="M71.0337 41.0605C73.3068 41.8584 75.53 42.7923 77.6909 43.8573C75.3559 44.4496 72.9873 44.9009 70.598 45.2086C70.2809 45.2436 69.96 45.2071 69.6589 45.1019C69.3577 44.9966 69.084 44.8252 68.8577 44.6003C68.6315 44.3754 68.4585 44.1027 68.3514 43.8022C68.2444 43.5017 68.206 43.181 68.2391 42.8638C68.2727 42.5466 68.3769 42.2409 68.5441 41.9693C68.7112 41.6976 68.9371 41.4668 69.2052 41.2939C69.4732 41.1209 69.7765 41.0102 70.0929 40.9698C70.4093 40.9294 70.7308 40.9604 71.0337 41.0605Z" fill="#FCD462"/>
<path d="M70.3634 45.7621C69.9762 45.7624 69.5935 45.6785 69.2418 45.5163C68.8901 45.3542 68.5779 45.1176 68.3266 44.8229C68.0754 44.5282 67.8911 44.1825 67.7866 43.8096C67.682 43.4367 67.6597 43.0456 67.7211 42.6632C67.7826 42.2809 67.9263 41.9164 68.1424 41.5951C68.3585 41.2737 68.6418 41.0031 68.9727 40.802C69.3037 40.6009 69.6743 40.474 70.0591 40.4302C70.4439 40.3863 70.8336 40.4266 71.2012 40.5481C73.5 41.3519 75.7475 42.2957 77.931 43.374C78.0297 43.4233 78.111 43.5015 78.1639 43.5983C78.2168 43.6951 78.2389 43.8057 78.2271 43.9154C78.2154 44.0251 78.1703 44.1285 78.0981 44.2119C78.0258 44.2952 77.9298 44.3544 77.8229 44.3816C75.463 44.9822 73.0686 45.4382 70.6531 45.747C70.5569 45.7572 70.4602 45.7623 70.3634 45.7621ZM70.3634 41.494C70.1469 41.4945 69.9327 41.5392 69.734 41.6252C69.5353 41.7112 69.3562 41.8368 69.2077 41.9943C69.0592 42.1519 68.9443 42.338 68.8701 42.5414C68.7959 42.7448 68.7639 42.9612 68.7761 43.1774C68.7883 43.3936 68.8445 43.605 68.9411 43.7988C69.0377 43.9925 69.1728 44.1646 69.3382 44.3044C69.5035 44.4442 69.6956 44.5488 69.9027 44.6119C70.1099 44.675 70.3277 44.6952 70.5429 44.6713C72.4038 44.4426 74.2512 44.1142 76.0769 43.6876C74.3798 42.8907 72.641 42.1855 70.8683 41.5751C70.7047 41.5212 70.5335 41.4938 70.3612 41.494H70.3634Z" fill="#323C6B"/>
<path d="M68.8541 28.6184C71.255 28.4224 73.6655 28.3712 76.0725 28.4648C74.1803 29.9555 72.2002 31.331 70.1428 32.5838C69.8673 32.7448 69.5593 32.842 69.2413 32.8684C68.9234 32.8948 68.6035 32.8496 68.3053 32.7361C68.0071 32.6227 67.7381 32.4439 67.518 32.2128C67.2979 31.9818 67.1324 31.7044 67.0336 31.4011C66.9355 31.0976 66.9066 30.7761 66.949 30.46C66.9914 30.1439 67.1041 29.8413 67.2786 29.5745C67.4532 29.3076 67.6854 29.0832 67.958 28.9178C68.2306 28.7523 68.5368 28.65 68.8541 28.6184Z" fill="#FCD462"/>
<path d="M69.065 33.4184C68.3797 33.4164 67.7214 33.1516 67.2256 32.6785C66.7299 32.2055 66.4345 31.5603 66.4004 30.8759C66.3663 30.1915 66.5961 29.5201 67.0423 29.0001C67.4886 28.4801 68.1174 28.1512 68.799 28.0811C71.226 27.8811 73.663 27.8291 76.0963 27.9254C76.2064 27.9301 76.3125 27.9682 76.4003 28.0349C76.4881 28.1015 76.5534 28.1934 76.5875 28.2982C76.6216 28.403 76.6229 28.5157 76.5911 28.6212C76.5594 28.7268 76.4961 28.8201 76.4098 28.8887C74.4981 30.3969 72.4962 31.7872 70.4152 33.0519C70.0056 33.2915 69.5396 33.418 69.065 33.4184ZM68.9082 29.1568C68.6709 29.18 68.4419 29.2562 68.238 29.3797C68.0341 29.5032 67.8604 29.6708 67.7298 29.8703C67.5992 30.0697 67.515 30.2959 67.4834 30.5322C67.4518 30.7685 67.4736 31.0089 67.5471 31.2357C67.6197 31.4617 67.7423 31.6684 67.9056 31.8406C68.069 32.0127 68.269 32.1459 68.4909 32.2303C68.7143 32.3167 68.9542 32.3519 69.1929 32.3332C69.4317 32.3145 69.6632 32.2423 69.8704 32.1222C71.478 31.1565 73.0327 30.1053 74.5277 28.973C72.6518 28.9357 70.7752 28.9985 68.906 29.1611L68.9082 29.1568Z" fill="#323C6B"/>
<path d="M61.8023 18.1384C63.9163 16.983 66.0979 15.9559 68.3353 15.0627C67.2131 17.1942 65.9636 19.2564 64.5937 21.2378C64.4075 21.4969 64.1658 21.7111 63.8861 21.8645C63.6064 22.018 63.2959 22.1068 62.9773 22.1245C62.6588 22.1423 62.3403 22.0884 62.0453 21.967C61.7503 21.8455 61.4863 21.6595 61.2726 21.4227C61.0592 21.1855 60.9016 20.9034 60.8115 20.5973C60.7213 20.2912 60.7009 19.9688 60.7517 19.6538C60.8026 19.3388 60.9233 19.0391 61.1051 18.7769C61.2869 18.5146 61.5251 18.2965 61.8023 18.1384Z" fill="#FCD462"/>
<path d="M62.853 22.6681C62.2631 22.6674 61.69 22.4717 61.2229 22.1114C60.7558 21.7512 60.4209 21.2467 60.2703 20.6763C60.1197 20.106 60.1618 19.5019 60.3902 18.958C60.6186 18.4141 61.0204 17.961 61.533 17.6692C63.6687 16.499 65.8739 15.4603 68.1362 14.5589C68.2392 14.5176 68.3524 14.509 68.4604 14.5342C68.5684 14.5594 68.6661 14.6173 68.7401 14.6999C68.8141 14.7826 68.8609 14.886 68.8742 14.9961C68.8874 15.1063 68.8664 15.2178 68.814 15.3156C67.6811 17.4711 66.4175 19.5554 65.0303 21.5567C64.7965 21.8824 64.4924 22.1513 64.1406 22.3435C63.7888 22.5357 63.3982 22.6462 62.9978 22.667C62.9503 22.667 62.9016 22.6681 62.853 22.6681ZM67.1265 16.1502C65.3988 16.8786 63.7114 17.6989 62.0714 18.6075C61.8643 18.7254 61.6864 18.8881 61.5506 19.0838C61.4147 19.2795 61.3245 19.5032 61.2865 19.7383C61.2485 19.9735 61.2638 20.2142 61.3311 20.4427C61.3984 20.6712 61.5161 20.8817 61.6755 21.0587C61.8349 21.2358 62.0319 21.3748 62.2522 21.4656C62.4724 21.5564 62.7102 21.5967 62.948 21.5835C63.1858 21.5703 63.4177 21.5039 63.6265 21.3893C63.8353 21.2746 64.0158 21.1146 64.1546 20.9211C65.2298 19.3851 66.2219 17.7925 67.1265 16.1502Z" fill="#323C6B"/>
<path d="M51.0975 11.4324C52.5586 9.51712 54.1337 7.69148 55.8142 5.96539C55.6558 8.36917 55.3529 10.7612 54.9072 13.1286C54.8425 13.441 54.7086 13.7349 54.5155 13.9888C54.3223 14.2426 54.0747 14.45 53.791 14.5957C53.5072 14.7414 53.1944 14.8216 52.8755 14.8306C52.5566 14.8396 52.2398 14.777 51.9483 14.6476C51.657 14.5175 51.3986 14.3239 51.1919 14.0809C50.9853 13.838 50.8357 13.5518 50.7541 13.2434C50.6725 12.9351 50.661 12.6124 50.7204 12.299C50.7798 11.9856 50.9086 11.6895 51.0975 11.4324Z" fill="#FCD462"/>
<path d="M52.8164 15.3751C52.322 15.3743 51.8375 15.2367 51.4165 14.9774C50.9956 14.7181 50.6546 14.3474 50.4314 13.9063C50.2082 13.4651 50.1115 12.9708 50.1519 12.4781C50.1924 11.9853 50.3685 11.5134 50.6607 11.1146C52.1361 9.17722 53.7282 7.33163 55.4283 5.58812C55.5055 5.50945 55.6049 5.45624 55.7131 5.43563C55.8214 5.41501 55.9333 5.42798 56.034 5.47279C56.1347 5.51761 56.2193 5.59212 56.2764 5.68635C56.3336 5.78058 56.3605 5.89002 56.3537 6.00001C56.1954 8.43085 55.8889 10.8498 55.4359 13.2433C55.3104 13.8456 54.9816 14.3865 54.5047 14.7752C54.0278 15.164 53.4317 15.3769 52.8164 15.3784V15.3751ZM51.0975 11.4335L51.5299 11.7524C51.3905 11.9446 51.2957 12.1654 51.2526 12.3989C51.2095 12.6324 51.219 12.8725 51.2806 13.1018C51.3422 13.3311 51.4543 13.5437 51.6086 13.7241C51.7629 13.9045 51.9555 14.0482 52.1725 14.1446C52.3894 14.241 52.6252 14.2877 52.8625 14.2813C53.0998 14.275 53.3327 14.2156 53.5441 14.1077C53.7556 13.9997 53.9402 13.8459 54.0846 13.6574C54.229 13.469 54.3294 13.2506 54.3786 13.0184C54.7358 11.178 54.9941 9.31988 55.1526 7.4519C53.8706 8.81983 52.6628 10.2554 51.5342 11.7524L51.0975 11.4335Z" fill="#323C6B"/>
</svg>
