<svg width="80" height="80" viewBox="0 0 80 80" fill="none" xmlns="http://www.w3.org/2000/svg">
<g clip-path="url(#clip0)">
<path d="M78.5839 55.2649C75.9235 61.0923 71.7867 66.1233 66.5833 69.8596C61.3798 73.5959 55.2904 75.9077 48.9185 76.5659C42.5465 77.2242 36.1131 76.206 30.2558 73.6123C24.3984 71.0187 19.3205 66.9395 15.5251 61.779C11.7297 56.6186 9.34856 50.556 8.61766 44.1919C7.88676 37.8278 8.83146 31.3832 11.3581 25.4967C13.8848 19.6102 17.9058 14.486 23.0226 10.632C28.1394 6.77795 34.1745 4.32781 40.5298 3.52435C37.9735 9.12382 36.8644 15.2756 37.3041 21.4152C37.7439 27.5549 39.7185 33.4858 43.0467 38.6638C46.375 43.8418 50.9503 48.101 56.3528 51.0507C61.7554 54.0004 67.8123 55.5461 73.9677 55.546C75.5107 55.5456 77.0522 55.4517 78.5839 55.2649Z" fill="#EEEFEE"/>
<path d="M78.5838 55.2649C76.5668 59.6722 73.6983 63.6372 70.1432 66.9317C66.5882 70.2262 62.4168 72.7852 57.869 74.4615C53.3213 76.1378 48.4869 76.8984 43.6441 76.6993C38.8014 76.5003 34.0457 75.3456 29.6509 73.3018C25.256 71.2579 21.3087 68.3652 18.0359 64.7901C14.7632 61.215 12.2297 57.028 10.5813 52.4701C8.93277 47.9121 8.20182 43.0732 8.43046 38.2318C8.65909 33.3903 9.84281 28.6418 11.9135 24.2595C9.28759 32.719 9.80482 41.8423 13.37 49.9508C16.9352 58.0593 23.3086 64.6077 31.3176 68.3911C39.3266 72.1746 48.4325 72.9387 56.96 70.5429C65.4875 68.147 72.863 62.7524 77.7297 55.3514C78.0108 55.3298 78.3027 55.2974 78.5838 55.2649Z" fill="#E1E6E9"/>
<path d="M45.1352 77.2973C35.6368 77.3146 26.4897 73.7073 19.5599 67.2113C12.6301 60.7154 8.43977 51.8203 7.84371 42.3407C7.24764 32.861 10.2908 23.5111 16.3523 16.1983C22.4138 8.88548 31.037 4.16082 40.4627 2.98814C40.5577 2.9766 40.654 2.99046 40.7419 3.02831C40.8297 3.06616 40.906 3.12665 40.9628 3.2036C41.0196 3.28055 41.055 3.3712 41.0654 3.4663C41.0757 3.5614 41.0606 3.65754 41.0217 3.7449C38.8547 8.46362 37.7385 13.5967 37.7503 18.7892C37.7612 28.391 41.5803 37.5964 48.3698 44.3859C55.1593 51.1754 64.3647 54.9946 73.9665 55.0054C75.4878 55.0048 77.0077 54.9124 78.5179 54.7287C78.6127 54.7176 78.7087 54.7317 78.7962 54.7698C78.8838 54.8078 78.9597 54.8683 79.0162 54.9452C79.0728 55.0221 79.108 55.1126 79.1183 55.2074C79.1285 55.3023 79.1135 55.3982 79.0746 55.4854C76.0939 61.9847 71.3127 67.4935 65.2976 71.3593C59.2825 75.225 52.2854 77.2857 45.1352 77.2973ZM39.6422 4.19247C33.4846 5.13841 27.6752 7.65651 22.775 11.5035C17.8749 15.3504 14.0498 20.3961 11.6693 26.1532C9.28876 31.9102 8.43333 38.1839 9.18562 44.3681C9.93791 50.5523 12.2725 56.4379 15.9638 61.4564C19.6551 66.4748 24.5784 70.4563 30.2579 73.0163C35.9374 75.5762 42.1812 76.6281 48.386 76.0702C54.5907 75.5123 60.5467 73.3635 65.6785 69.8314C70.8102 66.2994 74.9442 61.5034 77.6811 55.907C76.4422 56.026 75.1946 56.0865 73.9665 56.0865C64.0781 56.0753 54.5979 52.1422 47.6057 45.1501C40.6135 38.1579 36.6804 28.6777 36.6692 18.7892C36.6583 13.7722 37.6699 8.80557 39.6422 4.19247Z" fill="#323C6B"/>
<path d="M19.3243 40.3514C21.1603 40.3514 22.6486 38.8631 22.6486 37.0271C22.6486 35.1911 21.1603 33.7028 19.3243 33.7028C17.4884 33.7028 16 35.1911 16 37.0271C16 38.8631 17.4884 40.3514 19.3243 40.3514Z" fill="#E1E6E9"/>
<path d="M29.7297 21.4325C31.5657 21.4325 33.054 19.9441 33.054 18.1081C33.054 16.2722 31.5657 14.7838 29.7297 14.7838C27.8937 14.7838 26.4054 16.2722 26.4054 18.1081C26.4054 19.9441 27.8937 21.4325 29.7297 21.4325Z" fill="#E1E6E9"/>
<path d="M28.3784 63.8648C30.2144 63.8648 31.7027 62.3765 31.7027 60.5405C31.7027 58.7045 30.2144 57.2162 28.3784 57.2162C26.5424 57.2162 25.0541 58.7045 25.0541 60.5405C25.0541 62.3765 26.5424 63.8648 28.3784 63.8648Z" fill="#E1E6E9"/>
<path d="M38.9189 51.2973C40.7549 51.2973 42.2433 49.809 42.2433 47.973C42.2433 46.137 40.7549 44.6487 38.9189 44.6487C37.083 44.6487 35.5946 46.137 35.5946 47.973C35.5946 49.809 37.083 51.2973 38.9189 51.2973Z" fill="#E1E6E9"/>
<path d="M58.7384 63.8649C60.2263 63.8649 61.4324 62.6588 61.4324 61.1709C61.4324 59.683 60.2263 58.4768 58.7384 58.4768C57.2505 58.4768 56.0443 59.683 56.0443 61.1709C56.0443 62.6588 57.2505 63.8649 58.7384 63.8649Z" fill="#E1E6E9"/>
<path d="M43.2887 80.4941H43.2638C42.7125 80.4692 42.1655 80.426 41.6206 80.3784C41.4778 80.3661 41.3458 80.2975 41.2536 80.1878C41.1613 80.0781 41.1164 79.9363 41.1287 79.7936C41.1337 79.7224 41.1529 79.6531 41.1853 79.5895C41.2176 79.526 41.2624 79.4696 41.3169 79.4237C41.3715 79.3778 41.4347 79.3434 41.5029 79.3224C41.571 79.3015 41.6426 79.2944 41.7136 79.3017C42.2444 79.3471 42.7763 79.3903 43.3135 79.4098C43.4569 79.4129 43.5931 79.4729 43.6923 79.5765C43.7914 79.6801 43.8454 79.8188 43.8422 79.9622C43.839 80.1056 43.7791 80.2418 43.6755 80.3409C43.5719 80.4401 43.4331 80.494 43.2898 80.4909L43.2887 80.4941Z" fill="#323C6B"/>
<path d="M37.2076 79.7417C37.1713 79.7417 37.1351 79.7381 37.0995 79.7309C33.2074 78.9431 29.4532 77.5839 25.959 75.6974C25.8328 75.6293 25.7389 75.5139 25.6978 75.3765C25.6568 75.2391 25.6719 75.0911 25.74 74.9649C25.8081 74.8388 25.9236 74.7448 26.0609 74.7038C26.1983 74.6627 26.3463 74.6779 26.4725 74.746C29.8732 76.5819 33.5268 77.9047 37.3146 78.6714C37.446 78.6981 37.5628 78.7726 37.6423 78.8806C37.7218 78.9885 37.7583 79.1221 37.7449 79.2555C37.7314 79.3888 37.6689 79.5124 37.5694 79.6023C37.4699 79.6921 37.3406 79.7418 37.2065 79.7417H37.2076Z" fill="#323C6B"/>
<path d="M17.6757 24.7027L17.2433 25.4703C17.1807 25.6083 17.0807 25.7261 16.9546 25.8102C16.8284 25.8942 16.6813 25.9413 16.5298 25.9459H16.4865C16.3669 25.948 16.2484 25.9221 16.1406 25.8703C16.0404 25.8243 15.9502 25.759 15.8753 25.678C15.8004 25.5971 15.7422 25.5022 15.704 25.3988C15.6658 25.2953 15.6485 25.1854 15.6529 25.0752C15.6573 24.965 15.6834 24.8568 15.7298 24.7568L16.1946 23.9351C16.2427 23.8339 16.3106 23.7433 16.3944 23.6689C16.4782 23.5945 16.5761 23.5377 16.6823 23.502C16.7885 23.4662 16.9008 23.4522 17.0126 23.4608C17.1243 23.4693 17.2332 23.5003 17.3327 23.5519C17.4322 23.6035 17.5203 23.6746 17.5917 23.7609C17.6631 23.8472 17.7165 23.9471 17.7485 24.0545C17.7805 24.1619 17.7905 24.2746 17.778 24.386C17.7655 24.4974 17.7307 24.6051 17.6757 24.7027Z" fill="white"/>
<path d="M27.0271 13.2865C27.0173 13.3958 26.9854 13.502 26.9333 13.5986C26.8813 13.6952 26.8102 13.7803 26.7244 13.8487C23.759 16.2801 21.1689 19.1362 19.0379 22.3243C18.964 22.4325 18.8659 22.522 18.7515 22.5858C18.637 22.6496 18.5093 22.6859 18.3784 22.6919C18.3676 22.7027 18.3568 22.7027 18.3352 22.7027C18.1703 22.6994 18.0095 22.6508 17.8703 22.5622C17.687 22.4362 17.5605 22.2432 17.518 22.0248C17.4756 21.8065 17.5206 21.5802 17.6433 21.3946C19.8654 18.0666 22.5686 15.0864 25.6649 12.5514C25.7505 12.4817 25.849 12.4296 25.9547 12.3981C26.0605 12.3666 26.1714 12.3562 26.2811 12.3676C26.3904 12.3775 26.4966 12.4094 26.5932 12.4614C26.6898 12.5135 26.7749 12.5845 26.8433 12.6703C26.913 12.7559 26.9651 12.8543 26.9966 12.9601C27.0281 13.0658 27.0385 13.1768 27.0271 13.2865Z" fill="white"/>
<path d="M40.453 19.3298C40.3097 19.3298 40.1722 19.2728 40.0708 19.1714C39.9694 19.0701 39.9125 18.9326 39.9125 18.7892C39.9125 18.3125 39.9309 17.8389 39.9503 17.3654C39.9513 17.2939 39.9669 17.2234 39.9961 17.1581C40.0253 17.0928 40.0674 17.0341 40.12 16.9856C40.1727 16.9372 40.2346 16.8999 40.3021 16.8762C40.3695 16.8525 40.4411 16.8427 40.5125 16.8476C40.6557 16.8535 40.7907 16.916 40.8878 17.0214C40.9849 17.1269 41.0362 17.2665 41.0303 17.4098C41.0119 17.8681 40.9936 18.3276 40.9936 18.7892C40.9936 18.9326 40.9366 19.0701 40.8352 19.1714C40.7339 19.2728 40.5964 19.3298 40.453 19.3298Z" fill="#323C6B"/>
<path d="M43.4293 33.1082C43.3253 33.1083 43.2234 33.0783 43.136 33.022C43.0485 32.9656 42.9792 32.8852 42.9363 32.7904C41.4562 29.527 40.5049 26.0489 40.118 22.4866C40.1164 22.3515 40.1655 22.2208 40.2554 22.1201C40.3454 22.0195 40.4698 21.9561 40.6042 21.9426C40.7385 21.929 40.8731 21.9662 40.9814 22.0469C41.0897 22.1276 41.1638 22.2458 41.1893 22.3784C41.5647 25.8257 42.4857 29.1913 43.918 32.3493C43.9552 32.4316 43.9712 32.5218 43.9645 32.6119C43.9578 32.702 43.9287 32.7889 43.8798 32.8648C43.8309 32.9407 43.7637 33.0031 43.6845 33.0464C43.6052 33.0897 43.5164 33.1124 43.4261 33.1125L43.4293 33.1082Z" fill="#323C6B"/>
</g>
<defs>
<clipPath id="clip0">
<rect width="80" height="80" fill="white"/>
</clipPath>
</defs>
</svg>
