<svg width="194" height="191" viewBox="0 0 194 191" fill="none" xmlns="http://www.w3.org/2000/svg">
<path d="M191.5 95.5C191.5 146.875 150.074 188.5 99 188.5C47.926 188.5 6.5 146.875 6.5 95.5C6.5 44.1251 47.926 2.5 99 2.5C150.074 2.5 191.5 44.1251 191.5 95.5Z" stroke="#22222A" stroke-width="5"/>
<path d="M75 6L47.5253 18.3015L25.5455 40.1709L11.8081 66.1407L7 92.1106L11.8081 122.181L19.3636 142" stroke="white" stroke-width="12"/>
<g clip-path="url(#clip0)">
<path d="M138.31 42.2069H142.448C144.734 42.2069 146.586 44.0594 146.586 46.3448V122.897C146.586 125.182 144.734 127.035 142.448 127.035H43.1379C40.8527 127.035 39 125.182 39 122.897V46.3448C39 44.0594 40.8525 42.2069 43.1379 42.2069H138.31Z" fill="#804537"/>
<path d="M92.793 42.207V117.207C92.8715 113.582 90.004 110.576 86.3791 110.483H47.2758V40.1379C47.2826 37.8553 49.1313 36.0066 51.4139 36H86.5863C88.2333 35.9979 89.8132 36.6511 90.9776 37.8155C92.1419 38.9798 92.7954 40.56 92.793 42.207Z" fill="#CBB292"/>
<path d="M92.793 117.207V118.759H47.2758V110.483H86.3791C90.0042 110.576 92.8715 113.582 92.793 117.207Z" fill="#7F6E5D"/>
<path d="M72.1034 71.1724L63.8277 60.8276L55.5519 71.1724V36H72.1034V71.1724Z" fill="#E64C3C"/>
<path d="M92.7931 42.207V117.207C92.7146 113.582 95.5821 110.576 99.207 110.483H138.31V40.1379C138.304 37.8553 136.455 36.0066 134.172 36H99C97.3531 35.9979 95.7732 36.6511 94.6088 37.8155C93.4442 38.9801 92.791 40.56 92.7931 42.207Z" fill="#FDD7AD"/>
<path d="M92.7931 117.207V118.759H138.31V110.483H99.207C95.5821 110.576 92.7146 113.582 92.7931 117.207Z" fill="#CBB292"/>
<path d="M142.448 83.5863H130.034C125.644 83.5852 121.433 85.3287 118.329 88.433C115.225 91.5373 113.481 95.7481 113.483 100.138V139.448C113.481 143.839 115.225 148.049 118.329 151.154C121.433 154.258 125.644 156.001 130.034 156H142.448C146.838 156.001 151.049 154.258 154.153 151.154C157.258 148.049 159.001 143.839 159 139.448V100.138C159.001 95.7478 157.258 91.537 154.153 88.4327C151.049 85.3284 146.839 83.5849 142.448 83.5863Z" fill="#ECF0F1"/>
<path d="M159 100.138V114.621H136.241V83.5863H142.448C146.838 83.5852 151.049 85.3287 154.154 88.433C157.258 91.5373 159.001 95.7478 159 100.138Z" fill="#BDC3C7"/>
<path d="M159 114.621V139.448C159.001 143.838 157.258 148.049 154.153 151.153C151.049 154.258 146.838 156.001 142.448 156H130.034C125.644 156.001 121.433 154.258 118.329 151.153C115.225 148.049 113.481 143.838 113.483 139.448V114.621H159Z" fill="#95A5A5"/>
</g>
<defs>
<clipPath id="clip0">
<rect width="120" height="120" fill="white" transform="translate(39 36)"/>
</clipPath>
</defs>
</svg>
