<svg width="90" height="110" viewBox="0 0 90 110" fill="none" xmlns="http://www.w3.org/2000/svg">
<rect x="2.5" y="2.5" width="85" height="105" stroke="white" stroke-width="5"/>
<path d="M29.1 20H45.9C51.3667 20 55.4667 21.4667 58.2 24.4C60.9333 27.3333 62.3 31.6333 62.3 37.3V72.7C62.3 78.3667 60.9333 82.6667 58.2 85.6C55.4667 88.5333 51.3667 90 45.9 90H29.1V20ZM45.7 80C47.5 80 48.8667 79.4667 49.8 78.4C50.8 77.3333 51.3 75.6 51.3 73.2V36.8C51.3 34.4 50.8 32.6667 49.8 31.6C48.8667 30.5333 47.5 30 45.7 30H40.1V80H45.7Z" fill="white"/>
</svg>
