<svg width="40" height="40" viewBox="0 0 40 40" fill="none" xmlns="http://www.w3.org/2000/svg">
<path d="M38.125 8.125H36.25V6.25C36.25 6.08424 36.1842 5.92527 36.0669 5.80806C35.9497 5.69085 35.7908 5.625 35.625 5.625H22.5C22.0132 5.62688 21.5336 5.7426 21.0995 5.9629C20.6655 6.18319 20.2889 6.50197 20 6.89375C19.7111 6.50197 19.3345 6.18319 18.9005 5.9629C18.4664 5.7426 17.9868 5.62688 17.5 5.625H4.375C4.20924 5.625 4.05027 5.69085 3.93306 5.80806C3.81585 5.92527 3.75 6.08424 3.75 6.25V8.125H1.875C1.70924 8.125 1.55027 8.19085 1.43306 8.30806C1.31585 8.42527 1.25 8.58424 1.25 8.75V33.75C1.25 33.9158 1.31585 34.0747 1.43306 34.1919C1.55027 34.3092 1.70924 34.375 1.875 34.375H38.125C38.2908 34.375 38.4497 34.3092 38.5669 34.1919C38.6842 34.0747 38.75 33.9158 38.75 33.75V8.75C38.75 8.58424 38.6842 8.42527 38.5669 8.30806C38.4497 8.19085 38.2908 8.125 38.125 8.125ZM2.5 33.125V9.375H3.75V31.25C3.75 31.4158 3.81585 31.5747 3.93306 31.6919C4.05027 31.8092 4.20924 31.875 4.375 31.875H17.5C17.8866 31.877 18.2632 31.9981 18.5786 32.2217C18.894 32.4454 19.1328 32.7608 19.2625 33.125H2.5ZM19.375 31.2687C18.8381 30.8532 18.1789 30.6269 17.5 30.625H5V6.875H17.5C17.9968 6.87648 18.4729 7.0745 18.8242 7.42581C19.1755 7.77712 19.3735 8.25318 19.375 8.75V31.2687ZM20 31.8937L19.9812 31.875H20.0187L20 31.8937ZM20.625 8.75C20.6265 8.25318 20.8245 7.77712 21.1758 7.42581C21.5271 7.0745 22.0032 6.87648 22.5 6.875H35V30.625H22.5C21.8211 30.6269 21.1619 30.8532 20.625 31.2687V8.75ZM37.5 33.125H20.7375C20.8672 32.7608 21.106 32.4454 21.4214 32.2217C21.7368 31.9981 22.1134 31.877 22.5 31.875H35.625C35.7908 31.875 35.9497 31.8092 36.0669 31.6919C36.1842 31.5747 36.25 31.4158 36.25 31.25V9.375H37.5V33.125Z" fill="#FCBF49"/>
<path d="M29.375 8.125C28.712 8.125 28.0761 8.38839 27.6072 8.85723C27.1384 9.32607 26.875 9.96196 26.875 10.625V25.625C26.875 25.7372 26.9053 25.8473 26.9625 25.9437L28.8375 29.0687C28.8928 29.162 28.9715 29.2393 29.0657 29.2929C29.16 29.3466 29.2666 29.3748 29.375 29.3748C29.4834 29.3748 29.59 29.3466 29.6843 29.2929C29.7785 29.2393 29.8572 29.162 29.9125 29.0687L31.7875 25.9437C31.8447 25.8473 31.875 25.7372 31.875 25.625V10.625C31.875 9.96196 31.6116 9.32607 31.1428 8.85723C30.6739 8.38839 30.038 8.125 29.375 8.125ZM29.375 27.5375L28.3437 25.8125L29.375 25.125L30.4063 25.8125L29.375 27.5375ZM30.625 24.4563L30 24.0375V15.625H28.75V24.0375L28.125 24.4563V14.375H30.625V24.4563ZM30.625 13.125H28.125V11.875H30.625V13.125ZM28.125 10.625C28.125 10.2935 28.2567 9.97554 28.4911 9.74112C28.7255 9.5067 29.0435 9.375 29.375 9.375C29.7065 9.375 30.0245 9.5067 30.2589 9.74112C30.4933 9.97554 30.625 10.2935 30.625 10.625H28.125Z" fill="#FCBF49"/>
<path d="M6.25 8.75H18.125V10H6.25V8.75Z" fill="#FCBF49"/>
<path d="M6.25 11.25H13.125V12.5H6.25V11.25Z" fill="#FCBF49"/>
<path d="M14.375 11.25H18.125V12.5H14.375V11.25Z" fill="#FCBF49"/>
<path d="M6.25 13.75H8.75V15H6.25V13.75Z" fill="#FCBF49"/>
<path d="M10 13.75H18.125V15H10V13.75Z" fill="#FCBF49"/>
</svg>
