<svg width="80" height="80" viewBox="0 0 80 80" fill="none" xmlns="http://www.w3.org/2000/svg">
<path d="M68.9191 40.1297C68.9191 47.3551 66.0488 54.2845 60.9397 59.3936C55.8306 64.5027 48.9011 67.373 41.6758 67.373V12.8919C45.2532 12.8909 48.7959 13.5947 52.1013 14.9631C55.4067 16.3315 58.4101 18.3377 60.94 20.8671C63.4699 23.3965 65.4767 26.3996 66.8458 29.7047C68.2148 33.0098 68.9193 36.5523 68.9191 40.1297Z" fill="#E1E6E9"/>
<path d="M41.6757 12.8919V67.3729C38.0661 67.4238 34.4824 66.7568 31.1329 65.4106C27.7833 64.0645 24.7347 62.066 22.1642 59.5315C19.5937 56.9969 17.5525 53.9768 16.1593 50.6465C14.7661 47.3163 14.0487 43.7423 14.0487 40.1324C14.0487 36.5225 14.7661 32.9485 16.1593 29.6183C17.5525 26.288 19.5937 23.2679 22.1642 20.7333C24.7347 18.1988 27.7833 16.2003 31.1329 14.8542C34.4824 13.508 38.0661 12.841 41.6757 12.8919Z" fill="#FCD462"/>
<path d="M20.133 47.772C20.0857 47.7898 20.0362 47.801 19.9859 47.8055C19.7825 47.855 19.5678 47.8254 19.3854 47.7226C19.203 47.6199 19.0664 47.4516 19.0032 47.252C18.9613 47.125 18.9122 47.0005 18.8562 46.879L18.8335 46.8228L18.8443 46.7666C18.8037 46.6373 18.7734 46.505 18.7535 46.3709C18.7269 46.258 18.7232 46.141 18.7425 46.0267C18.7618 45.9124 18.8037 45.803 18.8659 45.7051C18.928 45.6072 19.0091 45.5228 19.1043 45.4566C19.1996 45.3905 19.3071 45.3441 19.4205 45.3201C19.6447 45.2717 19.8789 45.3103 20.0757 45.4282C20.1743 45.489 20.2593 45.5696 20.3254 45.6649C20.3914 45.7601 20.4371 45.868 20.4594 45.9817C20.493 46.1044 20.5194 46.2289 20.5384 46.3547C20.5611 46.4228 20.5946 46.5125 20.64 46.6369C20.6814 46.7447 20.7011 46.8596 20.6981 46.975C20.695 47.0905 20.6691 47.2042 20.622 47.3097C20.5749 47.4151 20.5075 47.5102 20.4236 47.5896C20.3396 47.6689 20.2409 47.7309 20.133 47.772Z" fill="white"/>
<path d="M33.9049 60.0303C33.8601 60.221 33.7518 60.3909 33.5978 60.5121C33.4438 60.6333 33.2533 60.6986 33.0573 60.6973C32.9891 60.6953 32.9211 60.6877 32.8541 60.6746C30.1293 60.0237 27.5865 58.7662 25.4152 56.9961C23.2439 55.2259 21.5001 52.9886 20.3135 50.4508C20.2635 50.3456 20.2347 50.2316 20.229 50.1152C20.2232 49.9989 20.2406 49.8826 20.28 49.7729C20.3181 49.6654 20.3778 49.5668 20.4555 49.4833C20.5333 49.3998 20.6273 49.3332 20.7319 49.2875C20.8357 49.2383 20.9482 49.21 21.063 49.2044C21.1777 49.1987 21.2925 49.2158 21.4006 49.2547C21.5087 49.2936 21.608 49.3535 21.6929 49.4309C21.7778 49.5084 21.8465 49.6018 21.8952 49.7059C22.9713 52.0051 24.5521 54.0321 26.5198 55.6359C28.4875 57.2398 30.7916 58.3793 33.2606 58.9697C33.4858 59.0263 33.6798 59.1693 33.8003 59.3678C33.9209 59.5663 33.9585 59.8043 33.9049 60.0303Z" fill="white"/>
<path d="M41.6724 10C41.529 10 41.3915 9.94305 41.2902 9.84168C41.1888 9.7403 41.1318 9.60282 41.1318 9.45946V6.10811C41.1318 5.96475 41.1888 5.82726 41.2902 5.72589C41.3915 5.62452 41.529 5.56757 41.6724 5.56757C41.8157 5.56757 41.9532 5.62452 42.0546 5.72589C42.156 5.82726 42.2129 5.96475 42.2129 6.10811V9.45946C42.2129 9.60282 42.156 9.7403 42.0546 9.84168C41.9532 9.94305 41.8157 10 41.6724 10Z" fill="#323C6B"/>
<path d="M41.6724 4.36972C41.529 4.36972 41.3915 4.31277 41.2902 4.2114C41.1888 4.11003 41.1318 3.97254 41.1318 3.82918V3.19783C41.1318 3.05447 41.1888 2.91698 41.2902 2.81561C41.3915 2.71424 41.529 2.65729 41.6724 2.65729C41.8157 2.65729 41.9532 2.71424 42.0546 2.81561C42.156 2.91698 42.2129 3.05447 42.2129 3.19783V3.8281C42.2131 3.89917 42.1992 3.96958 42.1721 4.03529C42.145 4.10099 42.1052 4.16071 42.055 4.21102C42.0048 4.26132 41.9451 4.30124 41.8795 4.32847C41.8138 4.3557 41.7435 4.36972 41.6724 4.36972Z" fill="#323C6B"/>
<path d="M31.227 11.8422C31.1161 11.8422 31.0078 11.8081 30.9169 11.7445C30.826 11.6808 30.7569 11.5908 30.7189 11.4865L29.5719 8.333C29.5446 8.26569 29.5311 8.19358 29.5323 8.12095C29.5335 8.04832 29.5493 7.97668 29.5788 7.9103C29.6082 7.84392 29.6508 7.78416 29.7039 7.73459C29.757 7.68503 29.8195 7.64667 29.8878 7.62181C29.956 7.59695 30.0286 7.58611 30.1011 7.58992C30.1737 7.59373 30.2447 7.61212 30.31 7.64399C30.3752 7.67586 30.4334 7.72056 30.481 7.77542C30.5286 7.83027 30.5647 7.89416 30.587 7.96327L31.7352 11.1168C31.7649 11.1985 31.7745 11.2861 31.7631 11.3722C31.7518 11.4584 31.7198 11.5406 31.6699 11.6118C31.6201 11.6829 31.5538 11.7411 31.4767 11.7812C31.3996 11.8213 31.314 11.8422 31.227 11.8422Z" fill="#323C6B"/>
<path d="M29.2972 6.55134C29.1863 6.55137 29.078 6.51726 28.9871 6.45362C28.8962 6.38999 28.8271 6.29993 28.7891 6.19566L28.5729 5.60323C28.5298 5.47006 28.54 5.32537 28.6014 5.1996C28.6629 5.07383 28.7707 4.97678 28.9022 4.92888C29.0337 4.88098 29.1787 4.88596 29.3066 4.94277C29.4345 4.99959 29.5354 5.10381 29.588 5.2335L29.8042 5.82593C29.834 5.9076 29.8436 5.99523 29.8322 6.0814C29.8209 6.16757 29.7889 6.24972 29.739 6.32091C29.6892 6.39209 29.6229 6.45021 29.5458 6.49032C29.4687 6.53043 29.383 6.55136 29.2961 6.55134H29.2972Z" fill="#323C6B"/>
<path d="M22.0421 17.1459C21.9631 17.1458 21.8852 17.1285 21.8136 17.0951C21.7421 17.0616 21.6788 17.0129 21.6281 16.9524L19.4659 14.3816C19.3737 14.2718 19.3289 14.1298 19.3414 13.987C19.3539 13.8442 19.4226 13.7121 19.5324 13.62C19.6422 13.5278 19.7841 13.483 19.927 13.4955C20.0698 13.5079 20.2018 13.5766 20.294 13.6864L22.4562 16.2573C22.5222 16.3361 22.5643 16.4321 22.5777 16.534C22.591 16.636 22.5751 16.7396 22.5316 16.8328C22.4881 16.926 22.419 17.0048 22.3323 17.0601C22.2456 17.1154 22.1449 17.1447 22.0421 17.1448V17.1459Z" fill="#323C6B"/>
<path d="M18.4216 12.8324C18.3426 12.8324 18.2646 12.815 18.1931 12.7816C18.1216 12.7482 18.0582 12.6995 18.0075 12.6389L17.6021 12.1557C17.5565 12.1013 17.522 12.0385 17.5006 11.9708C17.4793 11.9031 17.4715 11.8318 17.4776 11.7611C17.4838 11.6904 17.5039 11.6216 17.5366 11.5586C17.5694 11.4956 17.6142 11.4397 17.6686 11.3941C17.723 11.3484 17.7858 11.3139 17.8535 11.2926C17.9212 11.2712 17.9925 11.2634 18.0632 11.2696C18.1339 11.2757 18.2027 11.2958 18.2657 11.3286C18.3287 11.3613 18.3846 11.4062 18.4302 11.4605L18.8356 11.9438C18.9016 12.0226 18.9438 12.1186 18.9572 12.2206C18.9705 12.3225 18.9545 12.4262 18.9111 12.5193C18.8676 12.6125 18.7985 12.6914 18.7118 12.7466C18.6251 12.8019 18.5244 12.8313 18.4216 12.8314V12.8324Z" fill="#323C6B"/>
<path d="M15.2238 25.2703C15.1289 25.2703 15.0357 25.2453 14.9535 25.1979L12.0476 23.5189C11.9244 23.4467 11.8348 23.3288 11.7984 23.1908C11.7619 23.0528 11.7814 22.906 11.8528 22.7823C11.9242 22.6587 12.0416 22.5684 12.1793 22.531C12.3171 22.4936 12.464 22.5122 12.5881 22.5827L15.494 24.2616C15.5971 24.3211 15.6776 24.413 15.7232 24.5229C15.7687 24.6328 15.7767 24.7547 15.7459 24.8696C15.7151 24.9846 15.6472 25.0861 15.5528 25.1586C15.4584 25.231 15.3428 25.2703 15.2238 25.2703Z" fill="#323C6B"/>
<path d="M10.347 22.4551C10.2521 22.4555 10.1588 22.4304 10.0767 22.3827L9.5362 22.067C9.47161 22.0332 9.41451 21.9867 9.36835 21.9303C9.3222 21.8738 9.28793 21.8086 9.26762 21.7386C9.24731 21.6686 9.24137 21.5952 9.25016 21.5228C9.25895 21.4505 9.28229 21.3806 9.31877 21.3175C9.35526 21.2544 9.40413 21.1993 9.46246 21.1556C9.52078 21.1118 9.58735 21.0803 9.65816 21.063C9.72897 21.0457 9.80255 21.0428 9.87449 21.0547C9.94642 21.0665 10.0152 21.0927 10.0767 21.1319L10.6173 21.4475C10.7203 21.507 10.8009 21.5989 10.8464 21.7088C10.8919 21.8187 10.8999 21.9406 10.8691 22.0555C10.8383 22.1705 10.7705 22.272 10.6761 22.3445C10.5817 22.4169 10.466 22.4562 10.347 22.4562V22.4551Z" fill="#323C6B"/>
<path d="M11.5979 35.2378C11.566 35.2378 11.5342 35.2349 11.5028 35.2291L8.19685 34.6454C8.06024 34.6158 7.94041 34.5344 7.8625 34.4184C7.7846 34.3023 7.75467 34.1606 7.77901 34.023C7.80335 33.8853 7.88006 33.7625 7.99304 33.6802C8.10602 33.5979 8.24648 33.5625 8.38495 33.5816L11.6909 34.1654C11.8235 34.1893 11.9423 34.262 12.0241 34.369C12.1059 34.476 12.1448 34.6097 12.1332 34.7439C12.1215 34.8782 12.0602 35.0032 11.9612 35.0945C11.8622 35.1859 11.7326 35.237 11.5979 35.2378Z" fill="#323C6B"/>
<path d="M6.05412 34.2594C6.02221 34.2595 5.99037 34.2566 5.95899 34.2508L5.33845 34.1427C5.20184 34.1131 5.08201 34.0317 5.0041 33.9157C4.9262 33.7996 4.89627 33.6579 4.92061 33.5203C4.94495 33.3826 5.02166 33.2598 5.13464 33.1775C5.24762 33.0952 5.38808 33.0598 5.52656 33.0789L6.1471 33.187C6.28098 33.2096 6.40145 33.2818 6.48453 33.3892C6.56762 33.4966 6.60725 33.6314 6.59553 33.7666C6.58382 33.9019 6.52162 34.0278 6.4213 34.1193C6.32099 34.2108 6.1899 34.2613 6.05412 34.2605V34.2594Z" fill="#323C6B"/>
<path d="M8.28983 46.4269C8.15512 46.4261 8.02557 46.375 7.92656 46.2837C7.82755 46.1923 7.76622 46.0673 7.75458 45.9331C7.74295 45.7989 7.78185 45.6651 7.86366 45.5581C7.94547 45.4511 8.06429 45.3785 8.19685 45.3545L11.5028 44.7707C11.5739 44.7553 11.6473 44.7544 11.7188 44.768C11.7902 44.7817 11.8581 44.8096 11.9185 44.8502C11.9789 44.8907 12.0305 44.943 12.0702 45.004C12.1099 45.0649 12.1369 45.1332 12.1495 45.2049C12.1622 45.2765 12.1603 45.3499 12.1439 45.4208C12.1275 45.4916 12.097 45.5585 12.0542 45.6172C12.0113 45.676 11.9571 45.7256 11.8947 45.7629C11.8323 45.8002 11.763 45.8246 11.6909 45.8345L8.38496 46.4183C8.35358 46.424 8.32173 46.4269 8.28983 46.4269Z" fill="#323C6B"/>
<path d="M5.42813 46.9308C5.29342 46.93 5.16387 46.8789 5.06486 46.7875C4.96585 46.6962 4.90453 46.5711 4.89289 46.4369C4.88126 46.3027 4.92015 46.169 5.00196 46.062C5.08377 45.955 5.2026 45.8823 5.33516 45.8584L5.9557 45.7502C6.09691 45.7253 6.24224 45.7575 6.35973 45.8397C6.47722 45.9219 6.55724 46.0474 6.58218 46.1886C6.60713 46.3298 6.57496 46.4752 6.49274 46.5927C6.41053 46.7101 6.28502 46.7902 6.14381 46.8151L5.52327 46.9232C5.49185 46.9286 5.46001 46.9311 5.42813 46.9308Z" fill="#323C6B"/>
<path d="M12.3179 57.4886C12.1989 57.4886 12.0832 57.4493 11.9888 57.3769C11.8944 57.3045 11.8266 57.2029 11.7958 57.088C11.765 56.973 11.773 56.8512 11.8185 56.7412C11.864 56.6313 11.9445 56.5395 12.0476 56.48L14.9535 54.801C15.0776 54.7305 15.2246 54.7119 15.3623 54.7493C15.5001 54.7867 15.6174 54.8771 15.6888 55.0007C15.7602 55.1243 15.7798 55.2711 15.7433 55.4091C15.7068 55.5471 15.6172 55.6651 15.4941 55.7373L12.5881 57.4162C12.506 57.4636 12.4127 57.4886 12.3179 57.4886Z" fill="#323C6B"/>
<path d="M9.80114 58.9416C9.68215 58.9416 9.56649 58.9024 9.47209 58.8299C9.37769 58.7575 9.30984 58.6559 9.27904 58.541C9.24824 58.4261 9.25623 58.3042 9.30176 58.1943C9.34729 58.0843 9.42782 57.9925 9.53087 57.933L10.0714 57.6173C10.1329 57.5782 10.2017 57.552 10.2737 57.5401C10.3456 57.5283 10.4192 57.5311 10.49 57.5485C10.5608 57.5658 10.6274 57.5973 10.6857 57.6411C10.744 57.6848 10.7929 57.7399 10.8294 57.803C10.8659 57.8661 10.8892 57.9359 10.898 58.0083C10.9068 58.0807 10.9008 58.1541 10.8805 58.2241C10.8602 58.2941 10.826 58.3593 10.7798 58.4157C10.7336 58.4722 10.6765 58.5187 10.612 58.5525L10.0714 58.8681C9.98948 58.9163 9.89617 58.9417 9.80114 58.9416Z" fill="#323C6B"/>
<path d="M19.8844 66.507C19.7816 66.5069 19.6809 66.4775 19.5942 66.4223C19.5075 66.367 19.4384 66.2881 19.3949 66.195C19.3515 66.1018 19.3355 65.9982 19.3488 65.8962C19.3622 65.7943 19.4043 65.6983 19.4703 65.6194L21.6325 63.0486C21.7247 62.9388 21.8567 62.8701 21.9995 62.8576C22.1424 62.8452 22.2843 62.89 22.3941 62.9821C22.5039 63.0743 22.5726 63.2063 22.5851 63.3492C22.5976 63.492 22.5528 63.6339 22.4606 63.7438L20.2985 66.3146C20.2477 66.3749 20.1843 66.4234 20.1127 66.4566C20.0412 66.4899 19.9633 66.5071 19.8844 66.507Z" fill="#323C6B"/>
<path d="M18.0164 68.733C17.9135 68.733 17.8129 68.7036 17.7262 68.6483C17.6395 68.593 17.5703 68.5142 17.5269 68.421C17.4834 68.3278 17.4674 68.2242 17.4808 68.1223C17.4941 68.0203 17.5363 67.9243 17.6023 67.8455L18.0077 67.3622C18.0999 67.2524 18.2319 67.1837 18.3747 67.1712C18.5176 67.1588 18.6595 67.2036 18.7693 67.2957C18.8791 67.3879 18.9478 67.5199 18.9603 67.6628C18.9728 67.8056 18.928 67.9475 18.8358 68.0574L18.4304 68.5406C18.3796 68.6009 18.3162 68.6494 18.2447 68.6827C18.1732 68.7159 18.0952 68.7331 18.0164 68.733Z" fill="#323C6B"/>
<path d="M30.0789 72.3924C29.992 72.3924 29.9064 72.3715 29.8293 72.3313C29.7522 72.2912 29.6859 72.2331 29.636 72.1619C29.5862 72.0908 29.5542 72.0086 29.5428 71.9224C29.5315 71.8363 29.5411 71.7486 29.5708 71.667L30.7189 68.5135C30.7715 68.3838 30.8724 68.2796 31.0003 68.2227C31.1283 68.1659 31.2732 68.1609 31.4047 68.2088C31.5363 68.2567 31.6441 68.3538 31.7055 68.4796C31.7669 68.6053 31.7771 68.75 31.734 68.8832L30.5859 72.0367C30.548 72.1408 30.4791 72.2307 30.3884 72.2943C30.2977 72.358 30.1897 72.3922 30.0789 72.3924Z" fill="#323C6B"/>
<path d="M29.0811 75.1233C28.9942 75.1233 28.9086 75.1024 28.8315 75.0623C28.7544 75.0222 28.6881 74.9641 28.6382 74.8929C28.5884 74.8217 28.5564 74.7395 28.545 74.6534C28.5337 74.5672 28.5433 74.4796 28.573 74.3979L28.7892 73.8055C28.8419 73.6758 28.9427 73.5716 29.0707 73.5147C29.1986 73.4579 29.3435 73.4529 29.4751 73.5008C29.6066 73.5487 29.7144 73.6458 29.7758 73.7716C29.8372 73.8973 29.8474 74.042 29.8043 74.1752L29.5881 74.7676C29.5502 74.8717 29.4813 74.9617 29.3906 75.0253C29.2999 75.0889 29.1919 75.1231 29.0811 75.1233Z" fill="#323C6B"/>
<path d="M41.6724 74.4368C41.529 74.4368 41.3915 74.3798 41.2902 74.2784C41.1888 74.1771 41.1318 74.0396 41.1318 73.8962V70.5449C41.1318 70.4015 41.1888 70.264 41.2902 70.1627C41.3915 70.0613 41.529 70.0043 41.6724 70.0043C41.8157 70.0043 41.9532 70.0613 42.0546 70.1627C42.156 70.264 42.2129 70.4015 42.2129 70.5449V73.8962C42.2129 74.0396 42.156 74.1771 42.0546 74.2784C41.9532 74.3798 41.8157 74.4368 41.6724 74.4368Z" fill="#323C6B"/>
<path d="M41.6724 77.3427C41.529 77.3427 41.3915 77.2858 41.2902 77.1844C41.1888 77.083 41.1318 76.9455 41.1318 76.8022V76.1719C41.1318 76.0285 41.1888 75.891 41.2902 75.7897C41.3915 75.6883 41.529 75.6313 41.6724 75.6313C41.8157 75.6313 41.9532 75.6883 42.0546 75.7897C42.156 75.891 42.2129 76.0285 42.2129 76.1719V76.8022C42.2129 76.9455 42.156 77.083 42.0546 77.1844C41.9532 77.2858 41.8157 77.3427 41.6724 77.3427Z" fill="#323C6B"/>
<path d="M53.266 72.3924C53.155 72.3924 53.0467 72.3583 52.9558 72.2947C52.8649 72.231 52.7958 72.141 52.7579 72.0367L51.6098 68.8832C51.5667 68.75 51.5769 68.6053 51.6383 68.4796C51.6997 68.3538 51.8075 68.2567 51.9391 68.2088C52.0706 68.1609 52.2155 68.1659 52.3435 68.2227C52.4714 68.2796 52.5723 68.3838 52.6249 68.5135L53.773 71.667C53.8027 71.7486 53.8123 71.8363 53.801 71.9224C53.7896 72.0086 53.7577 72.0908 53.7078 72.1619C53.6579 72.2331 53.5917 72.2912 53.5146 72.3313C53.4375 72.3715 53.3518 72.3924 53.2649 72.3924H53.266Z" fill="#323C6B"/>
<path d="M54.2584 75.1233C54.1474 75.1233 54.0392 75.0892 53.9483 75.0256C53.8574 74.962 53.7882 74.8719 53.7503 74.7676L53.5341 74.1752C53.491 74.042 53.5012 73.8973 53.5626 73.7716C53.624 73.6458 53.7319 73.5487 53.8634 73.5008C53.9949 73.4529 54.1398 73.4579 54.2678 73.5147C54.3957 73.5716 54.4966 73.6758 54.5492 73.8055L54.7654 74.3979C54.7951 74.4796 54.8047 74.5672 54.7934 74.6534C54.782 74.7395 54.7501 74.8217 54.7002 74.8929C54.6503 74.9641 54.5841 75.0222 54.507 75.0623C54.4299 75.1024 54.3442 75.1233 54.2573 75.1233H54.2584Z" fill="#323C6B"/>
<path d="M63.4595 66.507C63.3805 66.507 63.3025 66.4896 63.231 66.4562C63.1594 66.4228 63.0961 66.3741 63.0454 66.3135L60.8833 63.7427C60.8376 63.6883 60.8031 63.6255 60.7818 63.5578C60.7604 63.4901 60.7526 63.4189 60.7588 63.3481C60.7649 63.2774 60.785 63.2086 60.8177 63.1456C60.8505 63.0826 60.8954 63.0267 60.9497 62.9811C61.0041 62.9355 61.0669 62.901 61.1347 62.8796C61.2024 62.8582 61.2736 62.8504 61.3443 62.8566C61.415 62.8628 61.4839 62.8828 61.5468 62.9156C61.6098 62.9484 61.6657 62.9932 61.7114 63.0476L63.8735 65.6184C63.9395 65.6972 63.9817 65.7932 63.995 65.8952C64.0084 65.9971 63.9924 66.1008 63.9489 66.1939C63.9055 66.2871 63.8363 66.366 63.7496 66.4212C63.6629 66.4765 63.5623 66.5059 63.4595 66.506V66.507Z" fill="#323C6B"/>
<path d="M65.3286 68.733C65.2496 68.7329 65.1716 68.7156 65.1001 68.6822C65.0286 68.6487 64.9652 68.6 64.9145 68.5395L64.5091 68.0562C64.4169 67.9464 64.3721 67.8045 64.3846 67.6617C64.3971 67.5188 64.4658 67.3868 64.5756 67.2946C64.6854 67.2025 64.8273 67.1577 64.9702 67.1701C65.113 67.1826 65.245 67.2513 65.3372 67.3611L65.7426 67.8444C65.8086 67.9232 65.8508 68.0192 65.8641 68.1211C65.8775 68.2231 65.8615 68.3267 65.818 68.4199C65.7746 68.5131 65.7054 68.5919 65.6187 68.6472C65.532 68.7025 65.4314 68.7318 65.3286 68.7319V68.733Z" fill="#323C6B"/>
<path d="M71.0271 57.4886C70.9322 57.4886 70.839 57.4636 70.7569 57.4162L67.8509 55.7373C67.7278 55.6651 67.6382 55.5471 67.6017 55.4091C67.5652 55.2711 67.5848 55.1243 67.6562 55.0007C67.7275 54.8771 67.8449 54.7867 67.9827 54.7493C68.1204 54.7119 68.2674 54.7305 68.3914 54.801L71.2974 56.48C71.4004 56.5395 71.481 56.6313 71.5265 56.7412C71.572 56.8512 71.58 56.973 71.5492 57.088C71.5184 57.2029 71.4506 57.3045 71.3562 57.3769C71.2618 57.4493 71.1461 57.4886 71.0271 57.4886Z" fill="#323C6B"/>
<path d="M73.5438 58.9417C73.4489 58.9417 73.3557 58.9167 73.2736 58.8693L72.7265 58.5536C72.6034 58.4814 72.5138 58.3635 72.4773 58.2255C72.4408 58.0875 72.4604 57.9406 72.5318 57.817C72.6031 57.6934 72.7205 57.603 72.8583 57.5656C72.996 57.5282 73.143 57.5468 73.2671 57.6174L73.8141 57.9331C73.9171 57.9926 73.9977 58.0844 74.0432 58.1943C74.0887 58.3043 74.0967 58.4261 74.0659 58.5411C74.0351 58.656 73.9673 58.7576 73.8729 58.83C73.7785 58.9024 73.6628 58.9417 73.5438 58.9417Z" fill="#323C6B"/>
<path d="M75.0552 46.427C75.0233 46.427 74.9914 46.4241 74.9601 46.4183L71.6541 45.8378C71.5175 45.8082 71.3977 45.7268 71.3198 45.6108C71.2419 45.4947 71.2119 45.353 71.2363 45.2154C71.2606 45.0778 71.3373 44.9549 71.4503 44.8726C71.5633 44.7903 71.7038 44.755 71.8422 44.774L75.1482 45.3578C75.2807 45.3818 75.3996 45.4544 75.4814 45.5614C75.5632 45.6685 75.6021 45.8022 75.5904 45.9364C75.5788 46.0706 75.5175 46.1956 75.4185 46.287C75.3195 46.3783 75.1899 46.4294 75.0552 46.4302V46.427Z" fill="#323C6B"/>
<path d="M77.9156 46.9308C77.8837 46.9308 77.8519 46.9279 77.8205 46.9221L77.1999 46.814C77.0587 46.7891 76.9332 46.709 76.851 46.5916C76.7688 46.4741 76.7366 46.3287 76.7615 46.1875C76.7865 46.0463 76.8665 45.9208 76.984 45.8386C77.1015 45.7564 77.2468 45.7242 77.388 45.7492L78.0086 45.8573C78.1411 45.8812 78.26 45.9539 78.3418 46.0609C78.4236 46.1679 78.4625 46.3016 78.4509 46.4358C78.4392 46.5701 78.3779 46.6951 78.2789 46.7864C78.1799 46.8778 78.0503 46.9289 77.9156 46.9297V46.9308Z" fill="#323C6B"/>
<path d="M71.7471 35.2378C71.6124 35.237 71.4828 35.1859 71.3838 35.0945C71.2848 35.0032 71.2235 34.8782 71.2119 34.744C71.2002 34.6097 71.2391 34.476 71.3209 34.369C71.4027 34.262 71.5216 34.1894 71.6541 34.1654L74.9601 33.5816C75.0311 33.5662 75.1046 33.5653 75.176 33.579C75.2475 33.5926 75.3154 33.6205 75.3758 33.6611C75.4362 33.7016 75.4878 33.7539 75.5274 33.8149C75.5671 33.8758 75.5941 33.9441 75.6068 34.0158C75.6195 34.0874 75.6175 34.1608 75.6012 34.2317C75.5848 34.3025 75.5543 34.3693 75.5114 34.4281C75.4686 34.4869 75.4144 34.5365 75.3519 34.5738C75.2895 34.6111 75.2202 34.6355 75.1482 34.6454L71.8422 35.2292C71.8109 35.2349 71.779 35.2378 71.7471 35.2378Z" fill="#323C6B"/>
<path d="M77.2975 34.2595C77.1617 34.2602 77.0306 34.2098 76.9303 34.1183C76.83 34.0268 76.7678 33.9009 76.756 33.7656C76.7443 33.6303 76.784 33.4956 76.867 33.3882C76.9501 33.2808 77.0706 33.2086 77.2045 33.186L77.825 33.0779C77.9635 33.0588 78.104 33.0941 78.217 33.1764C78.3299 33.2587 78.4066 33.3816 78.431 33.5192C78.4553 33.6569 78.4254 33.7986 78.3475 33.9146C78.2696 34.0307 78.1497 34.1121 78.0131 34.1417L77.3926 34.2498C77.3612 34.2559 77.3294 34.2591 77.2975 34.2595Z" fill="#323C6B"/>
<path d="M68.1211 25.2702C68.0021 25.2702 67.8864 25.231 67.792 25.1585C67.6976 25.0861 67.6298 24.9845 67.599 24.8696C67.5682 24.7547 67.5762 24.6328 67.6217 24.5229C67.6672 24.4129 67.7478 24.3211 67.8508 24.2616L70.7568 22.5838C70.8808 22.5132 71.0278 22.4946 71.1656 22.532C71.3033 22.5694 71.4207 22.6598 71.492 22.7834C71.5634 22.907 71.583 23.0538 71.5465 23.1918C71.51 23.3298 71.4204 23.4478 71.2973 23.52L68.3914 25.1989C68.3091 25.246 68.2159 25.2706 68.1211 25.2702Z" fill="#323C6B"/>
<path d="M72.9967 22.4551C72.8777 22.4551 72.762 22.4159 72.6677 22.3434C72.5733 22.271 72.5054 22.1694 72.4746 22.0545C72.4438 21.9396 72.4518 21.8177 72.4973 21.7078C72.5428 21.5978 72.6234 21.506 72.7264 21.4465L73.2735 21.1308C73.3975 21.0603 73.5445 21.0417 73.6822 21.0791C73.82 21.1165 73.9374 21.2068 74.0087 21.3304C74.0801 21.4541 74.0997 21.6009 74.0632 21.7389C74.0267 21.8769 73.9371 21.9948 73.814 22.067L73.267 22.3827C73.1848 22.4302 73.0916 22.4551 72.9967 22.4551Z" fill="#323C6B"/>
<path d="M62.1871 16.093C62.0843 16.0929 61.9837 16.0635 61.897 16.0083C61.8103 15.953 61.7411 15.8742 61.6977 15.781C61.6542 15.6878 61.6382 15.5842 61.6516 15.4822C61.6649 15.3803 61.7071 15.2843 61.7731 15.2054L64.0271 12.519C64.0728 12.4646 64.1287 12.4197 64.1917 12.387C64.2546 12.3542 64.3235 12.3341 64.3942 12.328C64.4649 12.3218 64.5361 12.3296 64.6039 12.351C64.6716 12.3723 64.7344 12.4068 64.7888 12.4525C64.8431 12.4981 64.888 12.554 64.9208 12.617C64.9535 12.68 64.9736 12.7488 64.9797 12.8195C64.9859 12.8902 64.9781 12.9615 64.9567 13.0292C64.9354 13.0969 64.9009 13.1597 64.8552 13.2141L62.6012 15.9006C62.5504 15.9609 62.487 16.0094 62.4155 16.0427C62.3439 16.0759 62.266 16.0931 62.1871 16.093Z" fill="#323C6B"/>
<path d="M65.9005 11.6011C65.7977 11.601 65.697 11.5716 65.6103 11.5163C65.5236 11.4611 65.4545 11.3822 65.411 11.2891C65.3676 11.1959 65.3516 11.0922 65.3649 10.9903C65.3783 10.8884 65.4205 10.7923 65.4865 10.7135L65.8919 10.2303C65.9841 10.1204 66.1161 10.0517 66.2589 10.0393C66.4018 10.0268 66.5437 10.0716 66.6535 10.1638C66.7633 10.256 66.832 10.388 66.8445 10.5308C66.857 10.6736 66.8122 10.8156 66.72 10.9254L66.3146 11.4086C66.2638 11.469 66.2004 11.5175 66.1289 11.5507C66.0573 11.584 65.9794 11.6011 65.9005 11.6011Z" fill="#323C6B"/>
<path d="M52.1178 11.8421C52.0309 11.8422 51.9453 11.8212 51.8682 11.7811C51.7911 11.741 51.7248 11.6829 51.675 11.6117C51.6251 11.5405 51.5931 11.4584 51.5818 11.3722C51.5704 11.286 51.58 11.1984 51.6097 11.1167L52.7568 7.96323C52.8094 7.83354 52.9103 7.72933 53.0382 7.67251C53.1661 7.6157 53.3111 7.61072 53.4426 7.65862C53.5741 7.70652 53.6819 7.80356 53.7433 7.92933C53.8047 8.05511 53.815 8.1998 53.7719 8.33296L52.6238 11.4865C52.586 11.5904 52.5172 11.6802 52.4267 11.7438C52.3362 11.8074 52.2284 11.8417 52.1178 11.8421Z" fill="#323C6B"/>
<path d="M54.0433 6.55134C53.9564 6.55136 53.8707 6.53043 53.7936 6.49032C53.7165 6.45021 53.6502 6.39209 53.6004 6.32091C53.5505 6.24972 53.5185 6.16757 53.5072 6.0814C53.4958 5.99523 53.5054 5.9076 53.5352 5.82593L53.7514 5.2335C53.804 5.10381 53.9049 4.99959 54.0328 4.94277C54.1607 4.88596 54.3057 4.88098 54.4372 4.92888C54.5687 4.97678 54.6766 5.07383 54.738 5.1996C54.7994 5.32537 54.8096 5.47006 54.7665 5.60323L54.5503 6.19566C54.5124 6.29976 54.4435 6.3897 54.3528 6.45331C54.2621 6.51693 54.154 6.55115 54.0433 6.55134Z" fill="#323C6B"/>
<path d="M41.5319 12.8919C37.5915 12.9065 33.7016 13.7792 30.1325 15.4492C26.5635 17.1191 23.401 19.5464 20.8649 22.5622C25.6872 18.6836 31.6925 16.5737 37.8811 16.5838C39.1023 16.5861 40.3219 16.6699 41.5319 16.8346V12.8919Z" fill="#F7BE56"/>
<path d="M41.892 12.8919V16.88C46.6903 17.5925 51.2113 19.5738 54.9874 22.6191C58.7634 25.6643 61.6575 29.6629 63.3704 34.2015C65.0832 38.74 65.5527 43.6537 64.7302 48.4344C63.9077 53.2152 61.8231 57.6895 58.692 61.3946C63.0867 57.8814 66.2853 53.0933 67.8483 47.6883C69.4112 42.2834 69.2616 36.527 67.4201 31.2105C65.5786 25.8941 62.1356 21.2785 57.5644 17.9982C52.9932 14.718 47.5182 12.9341 41.892 12.8919Z" fill="#D5D6DB"/>
<path d="M41.6725 67.9135C36.1774 67.9135 30.8056 66.284 26.2366 63.2311C21.6676 60.1782 18.1065 55.839 16.0036 50.7621C13.9007 45.6853 13.3505 40.0989 14.4225 34.7094C15.4946 29.3199 18.1407 24.3693 22.0264 20.4836C25.912 16.598 30.8626 13.9519 36.2521 12.8798C41.6416 11.8078 47.228 12.358 52.3049 14.4609C57.3817 16.5638 61.7209 20.1249 64.7738 24.6939C67.8268 29.2629 69.4562 34.6346 69.4562 40.1297C69.4479 47.4959 66.5181 54.558 61.3094 59.7667C56.1007 64.9754 49.0386 67.9052 41.6725 67.9135ZM41.6725 13.427C36.3912 13.427 31.2285 14.9931 26.8372 17.9273C22.446 20.8614 19.0235 25.0318 17.0024 29.9111C14.9813 34.7903 14.4525 40.1594 15.4829 45.3392C16.5132 50.519 19.0564 55.277 22.7908 59.0114C26.5252 62.7459 31.2832 65.289 36.463 66.3194C41.6428 67.3497 47.0119 66.8209 51.8911 64.7998C56.7704 62.7788 60.9408 59.3562 63.8749 54.965C66.8091 50.5737 68.3752 45.411 68.3752 40.1297C68.366 33.0511 65.5496 26.265 60.5437 21.2601C55.5378 16.2552 48.7512 13.4402 41.6725 13.4324V13.427Z" fill="#323C6B"/>
<path d="M41.6724 67.9135C41.529 67.9135 41.3915 67.8566 41.2902 67.7552C41.1888 67.6538 41.1318 67.5163 41.1318 67.373V12.8865C41.1318 12.7431 41.1888 12.6056 41.2902 12.5043C41.3915 12.4029 41.529 12.3459 41.6724 12.3459C41.8157 12.3459 41.9532 12.4029 42.0546 12.5043C42.156 12.6056 42.2129 12.7431 42.2129 12.8865V67.373C42.2129 67.5163 42.156 67.6538 42.0546 67.7552C41.9532 67.8566 41.8157 67.9135 41.6724 67.9135Z" fill="#323C6B"/>
<path d="M48.8206 22.8735C50.0827 22.8735 51.1059 21.8503 51.1059 20.5881C51.1059 19.3259 50.0827 18.3027 48.8206 18.3027C47.5584 18.3027 46.5352 19.3259 46.5352 20.5881C46.5352 21.8503 47.5584 22.8735 48.8206 22.8735Z" fill="#D5D6DB"/>
<path d="M49.0261 42.4855C50.0071 42.4855 50.8023 41.6902 50.8023 40.7093C50.8023 39.7283 50.0071 38.933 49.0261 38.933C48.0451 38.933 47.2499 39.7283 47.2499 40.7093C47.2499 41.6902 48.0451 42.4855 49.0261 42.4855Z" fill="#D5D6DB"/>
<path d="M61.3751 46.1135C62.6373 46.1135 63.6605 45.0903 63.6605 43.8281C63.6605 42.5659 62.6373 41.5427 61.3751 41.5427C60.1129 41.5427 59.0897 42.5659 59.0897 43.8281C59.0897 45.0903 60.1129 46.1135 61.3751 46.1135Z" fill="#D5D6DB"/>
<path d="M60.3157 30.6086C61.3128 30.6086 62.1211 29.8003 62.1211 28.8032C62.1211 27.8061 61.3128 26.9978 60.3157 26.9978C59.3186 26.9978 58.5103 27.8061 58.5103 28.8032C58.5103 29.8003 59.3186 30.6086 60.3157 30.6086Z" fill="#D5D6DB"/>
<path d="M52.8237 57.7956C54.2692 57.7956 55.441 56.6238 55.441 55.1783C55.441 53.7328 54.2692 52.561 52.8237 52.561C51.3782 52.561 50.2064 53.7328 50.2064 55.1783C50.2064 56.6238 51.3782 57.7956 52.8237 57.7956Z" fill="#D5D6DB"/>
</svg>
