<svg width="30" height="30" viewBox="0 0 30 30" fill="none" xmlns="http://www.w3.org/2000/svg">
<g clip-path="url(#clip0)">
<path d="M24.1406 7.96875C24.1406 8.29216 24.4032 8.55469 24.7266 8.55469C25.05 8.55469 25.3125 8.29216 25.3125 7.96875C25.3125 7.64534 25.05 7.38281 24.7266 7.38281C24.4032 7.38281 24.1406 7.64534 24.1406 7.96875Z" fill="white"/>
<path d="M26.4844 15C26.4844 15.7505 26.4091 16.4996 26.2608 17.2266C26.196 17.5436 26.4006 17.853 26.7176 17.9178C26.7572 17.926 26.7966 17.9299 26.8355 17.9299C27.1081 17.9299 27.3523 17.7383 27.4091 17.4609C27.5732 16.6569 27.6563 15.829 27.6563 15C27.6563 13.155 27.2562 11.3795 26.4668 9.72289C26.3276 9.43084 25.9781 9.30678 25.6858 9.44594C25.3935 9.5851 25.2697 9.93483 25.4089 10.2271C26.1225 11.7249 26.4844 13.3308 26.4844 15Z" fill="white"/>
<path d="M17.9297 20.2734H17.3437V12.6562C17.3437 12.3326 17.0815 12.0703 16.7578 12.0703H12.0703C11.7467 12.0703 11.4844 12.3326 11.4844 12.6562V15C11.4844 15.3236 11.7467 15.5859 12.0703 15.5859H12.6562V20.2734H12.0703C11.7467 20.2734 11.4844 20.5357 11.4844 20.8594V23.2031C11.4844 23.5268 11.7467 23.7891 12.0703 23.7891H17.9297C18.2533 23.7891 18.5156 23.5268 18.5156 23.2031V20.8594C18.5156 20.5357 18.2533 20.2734 17.9297 20.2734ZM17.3437 22.6172H12.6562V21.4453H13.2422C13.5658 21.4453 13.8281 21.183 13.8281 20.8594V15C13.8281 14.6764 13.5658 14.4141 13.2422 14.4141H12.6562V13.2422H16.1719V20.8594C16.1719 21.183 16.4344 21.4453 16.7578 21.4453H17.3437V22.6172Z" fill="white"/>
<path d="M15 10.8984C16.2923 10.8984 17.3437 9.84695 17.3437 8.55469C17.3437 7.26242 16.2923 6.21094 15 6.21094C13.7077 6.21094 12.6562 7.26242 12.6562 8.55469C12.6562 9.84695 13.7077 10.8984 15 10.8984ZM15 7.38281C15.6461 7.38281 16.1719 7.90855 16.1719 8.55469C16.1719 9.20082 15.6461 9.72656 15 9.72656C14.3539 9.72656 13.8281 9.20082 13.8281 8.55469C13.8281 7.90855 14.3539 7.38281 15 7.38281Z" fill="white"/>
<path d="M14.9996 0C6.91503 0 -0.000401695 6.90239 -0.000401695 15C-0.000401695 17.766 0.792216 20.7076 2.12866 22.9326L0.0295818 29.2289C-0.040456 29.4392 0.0142467 29.6716 0.17126 29.8283C0.328959 29.986 0.561503 30.0398 0.77093 29.9698L7.06724 27.8709C9.29197 29.2076 12.2336 30 14.9996 30C23.0862 30 29.9996 23.0967 29.9996 15C29.9996 6.91338 23.0965 0 14.9996 0V0ZM14.9996 28.8281C12.3462 28.8281 9.52589 28.0451 7.45519 26.7336C7.30848 26.6407 7.12561 26.6162 6.95623 26.6727L1.51205 28.4875L3.32685 23.0434C3.3827 22.8763 3.36027 22.6932 3.26597 22.5444C1.95448 20.4739 1.17147 17.6534 1.17147 15C1.17147 7.50435 7.50395 1.17188 14.9996 1.17188C22.4952 1.17188 28.8277 7.50435 28.8277 15C28.8277 22.4957 22.4952 28.8281 14.9996 28.8281Z" fill="white"/>
</g>
<defs>
<clipPath id="clip0">
<rect width="30" height="30" fill="white"/>
</clipPath>
</defs>
</svg>
