<svg width="194" height="191" viewBox="0 0 194 191" fill="none" xmlns="http://www.w3.org/2000/svg">
<g clip-path="url(#clip0)">
<path d="M141.782 150.684H56.2177L63.8522 69.7715C65.5645 51.6232 80.7879 37.7571 99 37.7571C117.212 37.7571 132.435 51.6234 134.148 69.7715L141.782 150.684Z" fill="#8D9CA8"/>
<path d="M93.8566 42.4371C112.069 42.4371 127.292 56.3034 129.004 74.4516L136.197 150.684H141.782L134.148 69.7715C132.435 51.6232 117.212 37.7571 99 37.7571C88.6594 37.7571 79.2834 42.2287 72.7962 49.4151C78.6966 45.0208 85.9978 42.4371 93.8566 42.4371V42.4371Z" fill="#7A8C98"/>
<path d="M126.398 137.628H71.6023L76.0273 76.5532H121.973L126.398 137.628Z" fill="#C5D3DD"/>
<path d="M145.523 145.357V155.646H52.4766V145.334C52.4766 144.987 52.4953 144.643 52.5328 144.304C52.928 140.412 55.5696 137.064 59.3384 135.807L82.1466 128.198L83.8416 127.631L85.132 127.201C85.2558 127.159 85.3798 127.112 85.4991 127.063C87.5051 126.23 88.8305 124.264 88.8305 122.067V109.782H109.17V122.175C109.17 124.369 110.491 126.333 112.489 127.168C112.618 127.222 112.749 127.271 112.882 127.316L114.147 127.734L115.84 128.294L123.646 130.87L132.906 133.928L138.634 135.821C142.69 137.16 145.446 140.918 145.521 145.177C145.523 145.238 145.523 145.296 145.523 145.357V145.357Z" fill="#B6C4CF"/>
<path d="M145.521 145.177C145.446 140.918 142.69 137.16 138.634 135.821L132.906 133.928L123.646 130.87L115.84 128.293L114.147 127.734L112.882 127.315C112.749 127.271 112.618 127.222 112.489 127.168C110.49 126.333 109.17 124.369 109.17 122.174V109.781H88.8305V113.759H105.429V126.152C105.429 128.347 106.75 130.311 108.749 131.146C108.878 131.2 109.009 131.249 109.142 131.293L110.407 131.712L112.099 132.271L119.906 134.848L129.166 137.906L134.894 139.799C138.95 141.138 141.706 144.896 141.781 149.155C141.783 149.216 141.783 149.274 141.783 149.335V155.646H145.524V145.357C145.523 145.296 145.523 145.238 145.521 145.177Z" fill="#9FACBA"/>
<path d="M112.882 127.315L114.147 127.734C113.525 133.332 106.982 137.733 99.0002 137.733C90.9696 137.733 84.3956 133.278 83.8416 127.631L85.132 127.201C87.3412 126.464 88.8305 124.395 88.8305 122.067V112.264C88.5546 112.129 88.2811 111.988 88.0123 111.841C85.5037 110.488 83.2734 108.679 81.4312 106.531L83.921 100.188L107.533 94.1034L114.638 108.525C113.434 109.634 112.111 110.615 110.689 111.45C110.194 111.74 109.687 112.012 109.17 112.264V122.174C109.17 124.51 110.666 126.583 112.882 127.315V127.315Z" fill="white"/>
<path d="M99.3506 111.473C95.2828 111.473 91.4346 110.53 88.012 108.85V111.841C88.2809 111.988 88.5544 112.129 88.8302 112.264V120.434C89.8003 120.548 90.7894 120.604 91.7923 120.604C98.4855 120.604 104.585 118.054 109.17 113.87V112.265C109.686 112.012 110.194 111.741 110.689 111.45V108.851C107.267 110.53 103.418 111.473 99.3506 111.473V111.473Z" fill="#F5F8F9"/>
<path d="M122.145 78.7387V91.4498C122.145 98.2101 119.253 104.294 114.638 108.525C113.013 110.02 111.173 111.284 109.17 112.264C106.1 113.771 102.649 114.616 99 114.616C95.3505 114.616 91.8998 113.771 88.8302 112.264C85.9873 110.872 83.4719 108.911 81.431 106.531C77.9545 102.479 75.8552 97.211 75.8552 91.4498V78.7387C75.8552 77.0702 76.0305 75.4441 76.3671 73.8785C78.5974 63.4162 87.8834 55.5724 99 55.5724C105.392 55.5724 111.178 58.165 115.365 62.3585C118.393 65.389 120.585 69.2545 121.568 73.5813C121.946 75.2404 122.145 76.965 122.145 78.7387V78.7387Z" fill="#FFCEBF"/>
<path d="M99 67.755C106.554 67.755 113.392 70.8192 118.341 75.7748C119.779 77.2143 121.054 78.8158 122.145 80.5457V78.7387C122.145 76.965 121.946 75.2404 121.568 73.5813C120.585 69.2545 118.393 65.3889 115.365 62.3585C111.178 58.1653 105.392 55.5724 99 55.5724C87.8836 55.5724 78.5974 63.4162 76.3671 73.8785C76.0305 75.4439 75.8552 77.0702 75.8552 78.7387V80.5401C80.6991 72.8578 89.2535 67.755 99 67.755V67.755Z" fill="#FFB09E"/>
<path d="M121.567 73.5813C115.788 67.8951 107.863 64.3849 99.1169 64.3849C90.2215 64.3849 82.1721 68.0165 76.3671 73.8785C78.5974 63.4162 87.8833 55.5724 99 55.5724C105.392 55.5724 111.178 58.165 115.365 62.3585C118.393 65.3889 120.585 69.2545 121.567 73.5813V73.5813Z" fill="#F5F8F9"/>
<path d="M147.278 145.13C147.206 141.306 145.252 137.741 142.126 135.609L135.897 69.6068C135.398 64.3095 133.815 59.2938 131.191 54.6996C130.71 53.8566 129.636 53.5636 128.793 54.0448C127.95 54.5262 127.657 55.5998 128.138 56.4427C130.512 60.6002 131.945 65.1403 132.398 69.937L138.434 133.904L127.631 130.336L123.903 78.8763V78.7162C123.903 64.9849 112.731 53.8137 99 53.8137C85.2687 53.8137 74.0974 64.9849 74.0974 78.7162V78.8763L70.3734 130.273L59.5685 133.878L65.6027 69.9368C66.3891 61.5956 70.2316 53.8969 76.4222 48.2585C82.6123 42.6206 90.6305 39.5156 99 39.5156C107.369 39.5156 115.387 42.6206 121.579 48.2585C122.655 49.2391 123.679 50.3013 124.62 51.4155C125.248 52.1566 126.357 52.2499 127.098 51.623C127.839 50.996 127.932 49.887 127.305 49.1456C126.265 47.9154 125.134 46.7426 123.945 45.6595C117.106 39.4305 108.247 36 99 36C89.7527 36 80.8938 39.4305 74.0548 45.6593C67.2159 51.888 62.9712 60.3928 62.1026 69.6066L55.8762 135.585C53.0201 137.531 51.1369 140.657 50.7853 144.112C50.7413 144.514 50.7188 144.925 50.7188 145.334V154.242C50.7188 155.213 51.5055 156 52.4766 156C53.4476 156 54.2344 155.213 54.2344 154.242V145.334C54.2344 145.053 54.2496 144.771 54.2815 144.482C54.5515 141.828 56.0967 139.455 58.4149 138.135C58.8848 137.868 59.3827 137.645 59.8945 137.475L72.5984 133.237C72.6262 133.228 72.6537 133.218 72.6809 133.207L82.5443 129.917C83.3468 132.356 85.0995 134.559 87.6389 136.26C90.1732 137.958 93.3218 139.033 96.6818 139.374C96.6994 139.376 96.7172 139.377 96.735 139.378C97.0411 139.408 97.3493 139.431 97.6587 139.449V142.472H94.0371C93.0661 142.472 92.2793 143.258 92.2793 144.229C92.2793 145.2 93.0661 145.987 94.0371 145.987H97.6587V153.136C97.6587 154.107 98.4455 154.894 99.4165 154.894C100.388 154.894 101.174 154.107 101.174 153.136V145.987H104.796C105.767 145.987 106.554 145.2 106.554 144.229C106.554 143.258 105.767 142.472 104.796 142.472H101.174V139.387C101.211 139.384 101.249 139.381 101.286 139.377C101.296 139.376 101.306 139.376 101.316 139.375C108.202 138.69 113.749 134.989 115.428 130.008L138.081 137.49C138.611 137.666 139.117 137.89 139.588 138.161C142.113 139.597 143.713 142.297 143.764 145.207C143.764 145.219 143.764 145.231 143.765 145.243C143.766 145.281 143.766 145.318 143.766 145.357V154.242C143.766 155.213 144.553 156 145.524 156C146.495 156 147.281 155.213 147.281 154.242V145.357C147.281 145.281 147.281 145.206 147.278 145.13V145.13ZM113.434 125.646C111.935 125.151 110.928 123.756 110.928 122.175V113.327C115.867 110.621 119.795 106.288 121.984 101.054L124.02 129.143L113.434 125.646ZM85.3652 107.951C84.6176 107.331 83.5097 107.435 82.8902 108.183C82.2708 108.93 82.3748 110.038 83.1225 110.658C84.3546 111.679 85.6802 112.567 87.0724 113.326V122.067C87.0724 123.642 86.0691 125.035 84.5754 125.533L73.9856 129.066L76.0146 101.064C76.6905 102.681 77.5373 104.233 78.5555 105.694C79.1105 106.49 80.2055 106.687 81.0026 106.132C81.799 105.577 81.9947 104.481 81.4397 103.684C78.9361 100.092 77.6128 95.8687 77.6128 91.4726V78.7162C77.6128 77.363 77.7405 76.039 77.9822 74.7546C83.6693 69.198 91.1531 66.1427 99.1167 66.1427C106.931 66.1427 114.314 69.1001 119.964 74.4787C120.241 75.8489 120.387 77.2657 120.387 78.716V91.4723C120.387 103.265 110.793 112.859 98.9998 112.859C94.0287 112.86 89.1867 111.116 85.3652 107.951V107.951ZM99 57.3293C106.934 57.3293 113.872 61.6716 117.563 68.1042C112.121 64.5412 105.759 62.6273 99.117 62.6273C92.3119 62.6273 85.8204 64.6249 80.3027 68.3438C83.9583 61.7798 90.9687 57.3293 99 57.3293V57.3293ZM101.017 135.87H96.9748C91.5014 135.302 87.0544 132.472 85.871 128.799C88.6992 127.77 90.588 125.091 90.588 122.067V114.909C93.2693 115.871 96.116 116.375 99 116.375C101.951 116.375 104.783 115.858 107.412 114.911V122.175C107.412 125.191 109.285 127.858 112.094 128.896C110.861 132.518 106.431 135.307 101.017 135.87Z" fill="black"/>
<path d="M91.8077 82.362C92.4309 83.1066 93.54 83.2041 94.2839 82.5811C95.0283 81.9577 95.1263 80.8491 94.5031 80.1049C94.132 79.6617 92.1241 77.453 88.8682 77.6055C86.0461 77.7326 84.3185 79.5537 83.8561 80.1087C83.2348 80.8547 83.3358 81.9631 84.0818 82.5844C84.4104 82.8581 84.8093 82.9915 85.2059 82.9915C85.7095 82.9915 86.2097 82.7761 86.5575 82.3587C86.7209 82.1627 87.6073 81.1819 89.0266 81.1177C90.6495 81.049 91.6945 82.2267 91.8077 82.362V82.362Z" fill="black"/>
<path d="M104.42 82.5834C104.749 82.8574 105.148 82.991 105.545 82.991C106.049 82.991 106.549 82.7759 106.896 82.3589C107.06 82.1627 107.947 81.1812 109.366 81.1172C110.987 81.049 112.034 82.2267 112.147 82.362C112.77 83.1066 113.879 83.2041 114.623 82.5811C115.368 81.9577 115.466 80.8491 114.842 80.1049C114.471 79.6617 112.453 77.4537 109.207 77.6056C106.387 77.7326 104.659 79.553 104.196 80.108C103.574 80.8533 103.675 81.9617 104.42 82.5834V82.5834Z" fill="black"/>
<path d="M107.157 99.6424C107.76 98.8821 107.633 97.7763 106.873 97.1728C106.112 96.5691 105.006 96.6961 104.403 97.4566C104.191 97.7241 102.237 100.068 99 100.068C95.763 100.068 93.8093 97.7241 93.597 97.4566C92.9934 96.6963 91.8874 96.5693 91.1273 97.1728C90.367 97.7763 90.24 98.8821 90.8435 99.6424C91.3659 100.301 94.2141 103.583 99 103.583C103.786 103.583 106.634 100.301 107.157 99.6424Z" fill="black"/>
</g>
<path d="M191.5 95.5C191.5 146.875 150.074 188.5 99 188.5C47.926 188.5 6.5 146.875 6.5 95.5C6.5 44.1251 47.926 2.5 99 2.5C150.074 2.5 191.5 44.1251 191.5 95.5Z" stroke="#22222A" stroke-width="5"/>
<path d="M75 6L47.5253 18.3015L25.5455 40.1709L11.8081 66.1407L7 92.1106L11.8081 122.181L19.3636 142" stroke="white" stroke-width="12"/>
<defs>
<clipPath id="clip0">
<rect width="120" height="120" fill="white" transform="translate(39 36)"/>
</clipPath>
</defs>
</svg>
